<svg width="77" height="32" viewBox="0 0 77 32" fill="none" xmlns="http://www.w3.org/2000/svg">
<path d="M40.6716 8.7642C40.3828 8.7642 40.0939 8.78858 39.8158 8.83727C38.0293 3.66394 33.6113 0 28.4337 0C23.9301 0 19.9935 2.77533 17.8754 6.91399C16.7522 6.34188 15.5113 6.02538 14.2062 6.02538C9.1998 6.02538 5.14551 10.6509 5.14551 16.3355C5.14551 16.3964 5.15622 16.4451 5.15622 16.5059H16.4206H33.8788H47.4752C47.4645 12.2334 44.4264 8.7642 40.6716 8.7642Z" fill="#92E3A9"/>
<path d="M38.1468 9.43386C38.4143 9.43386 38.671 9.45819 38.9277 9.49471C40.5537 4.77177 44.5974 1.42432 49.3364 1.42432C53.4549 1.42432 57.0492 3.96838 58.9854 7.74186C60.0123 7.21844 61.1463 6.92632 62.3444 6.92632C66.9229 6.92632 70.6349 11.1502 70.6349 16.36C70.6349 16.4087 70.6242 16.4574 70.6242 16.5061H60.3226H44.362H31.9316C31.9316 12.5987 34.713 9.43386 38.1468 9.43386Z" fill="#007E24"/>
<path d="M76.9998 13.9741H14.7837V31.7947H76.9998V13.9741Z" fill="#969696"/>
<path d="M14.7838 13.9741H0V31.7947H14.7838V13.9741Z" fill="#C7C7C7"/>
</svg>
