<svg width="609" height="399" viewBox="0 0 609 399" fill="none" xmlns="http://www.w3.org/2000/svg">
<g clip-path="url(#clip0_17_704)">
<path d="M359.597 26.2805H292.293V27.5627H359.597V26.2805Z" fill="#CCCCCC"/>
<path d="M239.731 26.2805H26.2803V27.5627H239.731V26.2805Z" fill="#CCCCCC"/>
<path d="M26.2805 53.2017C40.7948 53.2017 52.561 41.4355 52.561 26.9212C52.561 12.4069 40.7948 0.640747 26.2805 0.640747C11.7662 0.640747 0 12.4069 0 26.9212C0 41.4355 11.7662 53.2017 26.2805 53.2017Z" fill="#007E24"/>
<path d="M146.146 53.2017C160.661 53.2017 172.427 41.4355 172.427 26.9212C172.427 12.4069 160.661 0.640747 146.146 0.640747C131.632 0.640747 119.866 12.4069 119.866 26.9212C119.866 41.4355 131.632 53.2017 146.146 53.2017Z" fill="#3F3D56"/>
<path d="M266.009 53.8438C260.685 53.8438 255.48 52.2649 251.052 49.3067C246.625 46.3485 243.174 42.1438 241.137 37.2245C239.099 32.3052 238.566 26.8921 239.605 21.6697C240.644 16.4474 243.208 11.6504 246.973 7.88526C250.738 4.12016 255.535 1.5561 260.757 0.517311C265.979 -0.521477 271.393 0.0116594 276.312 2.04932C281.231 4.08697 285.436 7.53762 288.394 11.9649C291.352 16.3922 292.931 21.5973 292.931 26.9219C292.931 34.0621 290.095 40.9097 285.046 45.9586C279.997 51.0074 273.149 53.8438 266.009 53.8438ZM266.009 1.28217C260.938 1.28217 255.981 2.78592 251.765 5.60326C247.548 8.42059 244.262 12.425 242.321 17.11C240.381 21.7951 239.873 26.9504 240.862 31.924C241.852 36.8976 244.293 41.4662 247.879 45.052C251.465 48.6377 256.034 51.0797 261.007 52.069C265.981 53.0583 271.136 52.5506 275.821 50.61C280.506 48.6693 284.511 45.383 287.328 41.1666C290.145 36.9502 291.649 31.993 291.649 26.9219C291.649 20.1218 288.948 13.6003 284.139 8.79189C279.331 3.9835 272.809 1.28217 266.009 1.28217Z" fill="#CCCCCC"/>
<path d="M385.875 53.8438C380.55 53.8438 375.345 52.2649 370.918 49.3067C366.491 46.3485 363.04 42.1438 361.002 37.2245C358.965 32.3052 358.432 26.8921 359.47 21.6697C360.509 16.4474 363.073 11.6504 366.838 7.88526C370.603 4.12016 375.4 1.5561 380.623 0.517311C385.845 -0.521477 391.258 0.0116594 396.178 2.04932C401.097 4.08697 405.302 7.53762 408.26 11.9649C411.218 16.3922 412.797 21.5973 412.797 26.9219C412.797 34.0621 409.961 40.9097 404.912 45.9586C399.863 51.0074 393.015 53.8438 385.875 53.8438ZM385.875 1.28217C380.804 1.28217 375.847 2.78592 371.63 5.60326C367.414 8.42059 364.128 12.425 362.187 17.11C360.246 21.7951 359.739 26.9504 360.728 31.924C361.717 36.8976 364.159 41.4662 367.745 45.052C371.331 48.6377 375.899 51.0797 380.873 52.069C385.847 53.0583 391.002 52.5506 395.687 50.61C400.372 48.6693 404.376 45.383 407.194 41.1666C410.011 36.9502 411.515 31.993 411.515 26.9219C411.515 23.5549 410.852 20.2208 409.563 17.11C408.274 13.9993 406.386 11.1728 404.005 8.79189C401.624 6.41102 398.798 4.5224 395.687 3.23388C392.576 1.94536 389.242 1.28217 385.875 1.28217Z" fill="#CCCCCC"/>
<path d="M24.2571 34.7572C23.7955 34.7575 23.3462 34.6078 22.9771 34.3305L22.9543 34.3134L18.1308 30.6241C17.6796 30.2782 17.3844 29.7672 17.31 29.2036C17.2355 28.6401 17.388 28.07 17.7339 27.6188C18.0798 27.1677 18.5908 26.8725 19.1544 26.798C19.718 26.7236 20.288 26.8761 20.7392 27.222L23.8632 29.6178L31.2454 19.9863C31.5911 19.5354 32.1018 19.2403 32.6651 19.1659C33.2284 19.0914 33.7982 19.2438 34.2492 19.5895L34.2037 19.6528L34.2506 19.5895C34.7012 19.9357 34.9959 20.4465 35.0702 21.0098C35.1444 21.5731 34.9921 22.1429 34.6467 22.594L25.9631 33.9173C25.762 34.1784 25.5034 34.3896 25.2074 34.5345C24.9114 34.6794 24.586 34.7541 24.2564 34.7529L24.2571 34.7572Z" fill="white"/>
<path d="M466.913 139.353C467.404 139.577 467.877 139.841 468.326 140.141L513.237 120.973L514.839 109.143L532.784 109.032L531.724 136.168L472.446 151.846C472.321 152.258 472.172 152.661 471.998 153.055C471.141 154.884 469.762 156.418 468.036 157.466C466.309 158.514 464.312 159.028 462.294 158.945C460.276 158.861 458.328 158.183 456.694 156.996C455.06 155.809 453.814 154.165 453.111 152.272C452.408 150.378 452.28 148.32 452.744 146.354C453.207 144.388 454.241 142.603 455.716 141.223C457.19 139.843 459.04 138.93 461.032 138.597C463.024 138.265 465.07 138.528 466.912 139.355L466.913 139.353Z" fill="#FEB8B8"/>
<path d="M539.31 385.233H527.034L521.194 337.884H539.312L539.31 385.233Z" fill="#FEB8B8"/>
<path d="M518.266 381.726H541.941V396.628H503.359C503.359 392.674 504.93 388.883 507.725 386.087C510.521 383.292 514.313 381.721 518.266 381.721V381.726Z" fill="#2F2E41"/>
<path d="M587.053 381.765L574.837 382.967L564.383 336.418L582.414 334.646L587.053 381.765Z" fill="#FEB8B8"/>
<path d="M565.759 380.34L589.316 378.02L590.776 392.852L552.389 396.633C552.001 392.699 553.192 388.773 555.699 385.718C558.206 382.662 561.825 380.728 565.758 380.34H565.759Z" fill="#2F2E41"/>
<path d="M542.727 58.9199C556.31 58.9199 567.32 47.9092 567.32 34.3269C567.32 20.7446 556.31 9.73395 542.727 9.73395C529.145 9.73395 518.134 20.7446 518.134 34.3269C518.134 47.9092 529.145 58.9199 542.727 58.9199Z" fill="#FEB8B8"/>
<path d="M524.291 375.657C523.235 375.659 522.213 375.289 521.404 374.611C520.596 373.933 520.052 372.992 519.87 371.952C513.52 336.687 492.746 221.355 492.249 218.158C492.238 218.085 492.233 218.01 492.233 217.936V209.336C492.232 209.022 492.33 208.717 492.512 208.462L495.256 204.622C495.386 204.437 495.557 204.285 495.756 204.176C495.955 204.068 496.175 204.006 496.402 203.997C512.046 203.263 563.273 201.114 565.748 204.206C568.233 207.31 567.35 216.729 567.15 218.585L567.16 218.778L590.176 365.969C590.356 367.143 590.067 368.341 589.37 369.303C588.674 370.265 587.626 370.915 586.455 371.11L572.08 373.478C571.009 373.65 569.912 373.432 568.989 372.864C568.066 372.296 567.377 371.415 567.048 370.381C562.602 356.174 547.694 308.382 542.527 289.889C542.499 289.767 542.426 289.66 542.323 289.589C542.22 289.518 542.094 289.489 541.97 289.507C541.846 289.525 541.734 289.589 541.655 289.686C541.576 289.783 541.537 289.906 541.545 290.031C541.803 307.66 542.427 352.636 542.646 368.171L542.669 369.844C542.678 370.976 542.263 372.071 541.504 372.912C540.745 373.753 539.698 374.279 538.571 374.386L524.709 375.642C524.57 375.654 524.43 375.659 524.291 375.657Z" fill="#2F2E41"/>
<path d="M527.119 68.5905C522.828 71.142 520.259 75.8298 518.785 80.6086C516.057 89.4414 514.415 98.5736 513.895 107.804L512.337 135.437L493.056 208.704C509.768 222.843 519.406 219.629 541.901 208.064C564.396 196.498 566.966 211.919 566.966 211.919L571.464 149.58L577.89 81.4584C576.447 79.7214 574.814 78.1516 573.022 76.7785C567.082 72.1584 560.171 68.9469 552.809 67.3858C545.448 65.8247 537.828 65.9548 530.524 67.7663L527.119 68.5905Z" fill="#E6E6E6"/>
<path d="M520.857 154.149C521.376 154.343 521.878 154.578 522.359 154.85L566.767 132.621L567.504 120.58L585.822 119.317L586.803 146.766L527.459 166.393C526.975 168.473 525.869 170.356 524.289 171.791C522.708 173.227 520.728 174.147 518.612 174.43C516.496 174.713 514.343 174.345 512.441 173.374C510.54 172.404 508.978 170.877 507.965 168.998C506.952 167.118 506.535 164.975 506.77 162.852C507.005 160.73 507.881 158.73 509.281 157.118C510.68 155.505 512.538 154.357 514.606 153.826C516.674 153.295 518.855 153.407 520.858 154.146L520.857 154.149Z" fill="#FEB8B8"/>
<path d="M577.571 81.7656C588.496 85.6213 590.421 127.399 590.421 127.399C577.568 120.33 562.143 131.898 562.143 131.898C562.143 131.898 558.931 120.972 555.074 106.834C553.91 102.857 553.77 98.6495 554.669 94.6042C555.568 90.5589 557.476 86.8067 560.215 83.697C560.215 83.697 566.644 77.9077 577.571 81.7656Z" fill="#E6E6E6"/>
<path d="M564.774 40.8287C561.71 38.3775 557.53 42.8313 557.53 42.8313L555.079 20.7749C555.079 20.7749 539.759 22.6103 529.952 20.1619C520.144 17.7135 518.614 29.051 518.614 29.051C518.108 24.4724 518.006 19.8581 518.308 15.2615C518.921 9.74601 526.887 4.23051 540.982 0.553265C555.077 -3.12398 562.431 12.8103 562.431 12.8103C572.242 17.7092 567.842 43.2828 564.774 40.8287Z" fill="#2F2E41"/>
<path d="M609 396.632H84.6245V398.189H609V396.632Z" fill="#E6E6E6"/>
<path d="M135.21 369.13C137.454 369.918 139.863 370.116 142.206 369.703C144.548 369.291 146.745 368.282 148.584 366.774C153.268 362.843 154.736 356.366 155.931 350.368L159.465 332.629L152.066 337.724C146.745 341.388 141.304 345.17 137.619 350.477C133.934 355.784 132.326 363.029 135.286 368.771" fill="#E6E6E6"/>
<path d="M136.353 391.841C135.422 385.056 134.464 378.183 135.117 371.325C135.698 365.234 137.556 359.286 141.339 354.408C143.347 351.824 145.79 349.61 148.559 347.866C149.281 347.41 149.946 348.554 149.227 349.008C144.435 352.035 140.729 356.506 138.642 361.776C136.338 367.637 135.968 374.025 136.366 380.249C136.607 384.014 137.115 387.754 137.628 391.489C137.668 391.658 137.643 391.835 137.557 391.986C137.471 392.137 137.331 392.25 137.166 392.302C136.996 392.348 136.816 392.325 136.664 392.238C136.512 392.152 136.399 392.008 136.352 391.84L136.353 391.841Z" fill="#F2F2F2"/>
<path d="M143.057 380.954C144.019 382.416 145.342 383.606 146.898 384.409C148.454 385.212 150.19 385.601 151.94 385.538C156.436 385.325 160.185 382.187 163.56 379.209L173.541 370.397L166.935 370.081C162.185 369.854 157.312 369.642 152.784 371.107C148.256 372.572 144.086 376.097 143.259 380.778" fill="#E6E6E6"/>
<path d="M133.721 395.742C138.201 387.808 143.405 378.991 152.697 376.173C155.281 375.392 157.99 375.112 160.679 375.349C161.527 375.42 161.315 376.728 160.466 376.655C155.958 376.281 151.46 377.471 147.728 380.025C144.136 382.47 141.34 385.868 138.973 389.473C137.523 391.678 136.225 393.982 134.926 396.281C134.512 397.015 133.303 396.485 133.721 395.742Z" fill="#F2F2F2"/>
<path d="M449.731 166.829H225.236C224.134 166.827 223.077 166.389 222.298 165.61C221.518 164.83 221.08 163.774 221.079 162.671V106.984C221.08 105.882 221.518 104.825 222.298 104.045C223.077 103.266 224.134 102.828 225.236 102.826H449.731C450.834 102.828 451.89 103.266 452.67 104.045C453.449 104.825 453.887 105.882 453.889 106.984V162.671C453.887 163.774 453.449 164.83 452.67 165.61C451.89 166.389 450.834 166.827 449.731 166.829ZM225.236 104.49C224.574 104.49 223.94 104.754 223.473 105.221C223.005 105.689 222.742 106.323 222.741 106.984V162.672C222.742 163.334 223.005 163.968 223.473 164.435C223.94 164.903 224.574 165.166 225.236 165.167H449.731C450.393 165.166 451.027 164.903 451.495 164.435C451.963 163.968 452.226 163.334 452.226 162.672V106.984C452.226 106.322 451.963 105.688 451.495 105.22C451.027 104.753 450.393 104.49 449.731 104.489L225.236 104.49Z" fill="#E6E6E6"/>
<path d="M299.23 121.4C298.481 121.4 297.763 121.698 297.234 122.227C296.705 122.756 296.407 123.474 296.407 124.223C296.407 124.971 296.705 125.689 297.234 126.219C297.763 126.748 298.481 127.045 299.23 127.045H432.288C433.036 127.045 433.754 126.748 434.283 126.219C434.813 125.689 435.11 124.971 435.11 124.223C435.11 123.474 434.813 122.756 434.283 122.227C433.754 121.698 433.036 121.4 432.288 121.4H299.23Z" fill="#E6E6E6"/>
<path d="M299.23 138.336C298.481 138.336 297.763 138.633 297.234 139.163C296.705 139.692 296.407 140.41 296.407 141.158C296.407 141.907 296.705 142.625 297.234 143.154C297.763 143.684 298.481 143.981 299.23 143.981H356.485C357.233 143.981 357.951 143.684 358.481 143.154C359.01 142.625 359.307 141.907 359.307 141.158C359.307 140.41 359.01 139.692 358.481 139.163C357.951 138.633 357.233 138.336 356.485 138.336H299.23Z" fill="#E6E6E6"/>
<path d="M260.278 149.497C269.63 149.497 277.212 141.915 277.212 132.562C277.212 123.209 269.63 115.627 260.278 115.627C250.925 115.627 243.343 123.209 243.343 132.562C243.343 141.915 250.925 149.497 260.278 149.497Z" fill="#E6E6E6"/>
<path d="M257.616 141.974C257.047 141.975 256.493 141.791 256.038 141.449L256.009 141.428L250.066 136.881C249.509 136.455 249.145 135.825 249.053 135.13C248.961 134.435 249.149 133.732 249.575 133.176C250.001 132.62 250.631 132.255 251.326 132.163C252.021 132.071 252.724 132.259 253.28 132.685L257.13 135.637L266.228 123.768C266.654 123.213 267.283 122.849 267.977 122.757C268.671 122.666 269.373 122.853 269.929 123.279L269.873 123.357L269.931 123.279C270.486 123.706 270.849 124.335 270.941 125.029C271.033 125.723 270.845 126.425 270.42 126.981L259.719 140.944C259.472 141.265 259.154 141.525 258.789 141.704C258.425 141.882 258.024 141.975 257.619 141.973L257.616 141.974Z" fill="#007E24"/>
</g>
<defs>
<clipPath id="clip0_17_704">
<rect width="609" height="398.189" fill="white"/>
</clipPath>
</defs>
</svg>
