<svg width="212" height="130" viewBox="0 0 212 130" fill="none" xmlns="http://www.w3.org/2000/svg">
<g clip-path="url(#clip0_17_196)">
<path d="M23.0292 91.6782C22.1136 91.7798 21.114 91.9322 20.0506 92.1563C15.545 93.1036 15.4494 96.2592 15.49 96.9824L15.4581 96.9615C15.0061 97.7115 14.7221 98.4706 14.5483 99.1848L14.3426 89.5116C14.4759 89.2248 14.5975 88.899 14.699 88.5673C15.0351 89.6401 15.5885 90.6502 16.0666 90.5844C16.6866 90.4978 16.9561 88.6151 16.8402 87.2794C17.6283 88.3253 18.9554 89.4459 19.4566 89.0992C19.8565 88.8243 19.6189 87.6888 19.1843 86.6548C20.0941 87.2196 21.1024 87.5902 21.4153 87.2316C21.8412 86.7415 20.8184 85.071 19.8768 84.1387C21.1372 84.2612 22.7424 84.052 22.8496 83.4603C22.9365 82.9732 21.9803 82.3576 20.9575 81.9602C21.9832 81.6823 22.9452 81.1952 22.9133 80.7141C22.8756 80.1433 21.4501 79.7578 20.2187 79.701C21.1458 78.954 21.9977 77.917 21.7369 77.4509C21.4964 77.0205 20.3838 77.1879 19.3552 77.5674C19.9637 76.6709 20.3925 75.6579 20.0651 75.3112C19.6594 74.8809 18.2194 75.625 17.2343 76.4468C17.4255 75.1648 17.3299 73.5481 16.7707 73.4017C16.3042 73.2792 15.6435 74.2205 15.1915 75.2455C14.9916 74.1697 14.586 73.1477 14.1195 73.1477C13.453 73.1477 12.9141 75.2186 12.9141 76.5693C12.9141 76.647 12.9141 76.7187 12.9199 76.7875C12.8533 76.7068 12.775 76.6231 12.6881 76.5364C11.7493 75.5951 9.9326 74.5522 9.46611 75.0453C9.14159 75.3919 9.56752 76.402 10.176 77.3014C9.14739 76.9219 8.03186 76.7546 7.79426 77.1849C7.47264 77.7616 8.84895 79.205 9.96737 79.9043C9.90073 79.8953 9.82829 79.8893 9.75296 79.8833C8.4462 79.7907 6.40637 80.2061 6.36001 80.8904C6.32814 81.3715 7.2872 81.8586 8.31581 82.1365C7.293 82.5339 6.33973 83.1495 6.42375 83.6366C6.52806 84.2283 8.13327 84.4375 9.39657 84.315C8.45489 85.2473 7.43208 86.9178 7.85801 87.4079C8.17094 87.7665 9.17926 87.3959 10.0891 86.8311C9.65155 87.8651 9.41685 89.0006 9.8167 89.2756C10.344 89.6401 11.7957 88.3701 12.5577 87.2794C12.4795 88.6151 12.7895 90.45 13.4038 90.5217C13.6617 90.5516 13.934 90.2677 14.1803 89.8344L13.4849 100.231C13.3227 101.441 14.3628 102.233 14.4556 102.729L14.6062 109.769C14.4353 109.267 14.2093 108.753 13.8993 108.245L13.8674 108.266C13.9079 107.543 13.8123 104.387 9.30675 103.44C8.24337 103.216 7.24374 103.064 6.32814 102.962C5.24738 102.842 4.82435 104.369 5.8008 104.863C7.21477 105.577 8.54471 106.476 9.24011 107.54C11.0134 110.262 13.4617 108.691 13.8123 108.445C14.2006 109.115 14.4556 109.787 14.6178 110.427L14.699 114.165C14.6787 114.255 14.6671 114.303 14.6642 114.306L14.7019 114.317L14.896 123.366L16.6866 123.351L16.0463 114.102C16.1535 113.603 16.4838 111.903 16.0463 110.14L15.4059 102.872L14.5715 100.016C14.6932 99.131 14.9742 98.1388 15.5479 97.1557C15.8956 97.4007 18.3469 98.9756 20.1201 96.2502C20.8126 95.1864 22.1455 94.2869 23.5595 93.5727C24.5359 93.0797 24.1158 91.5526 23.0321 91.6722L23.0292 91.6782ZM14.8496 113.086L14.8149 111.503C14.8815 112.1 14.8786 112.641 14.8496 113.086Z" fill="#F2F2F2"/>
<path d="M0 123.802C0 124 0.153567 124.158 0.3448 124.158H211.655C211.846 124.158 212 124 212 123.802C212 123.605 211.846 123.447 211.655 123.447H0.3448C0.153567 123.447 0 123.605 0 123.802Z" fill="#3F3D56"/>
<path d="M128.237 124.116C136.878 124.116 143.883 116.891 143.883 107.979C143.883 99.067 136.878 91.8423 128.237 91.8423C119.595 91.8423 112.59 99.067 112.59 107.979C112.59 116.891 119.595 124.116 128.237 124.116Z" fill="#3F3D56"/>
<path d="M128.237 118.737C133.997 118.737 138.668 113.92 138.668 107.979C138.668 102.038 133.997 97.2212 128.237 97.2212C122.476 97.2212 117.806 102.038 117.806 107.979C117.806 113.92 122.476 118.737 128.237 118.737Z" fill="white"/>
<path d="M128.237 114.105C131.517 114.105 134.177 111.363 134.177 107.979C134.177 104.596 131.517 101.853 128.237 101.853C124.956 101.853 122.297 104.596 122.297 107.979C122.297 111.363 124.956 114.105 128.237 114.105Z" fill="#3F3D56"/>
<path d="M37.8354 124.116C46.4766 124.116 53.4818 116.891 53.4818 107.979C53.4818 99.067 46.4766 91.8423 37.8354 91.8423C29.1941 91.8423 22.189 99.067 22.189 107.979C22.189 116.891 29.1941 124.116 37.8354 124.116Z" fill="#3F3D56"/>
<path d="M37.8352 118.737C43.5961 118.737 48.2662 113.92 48.2662 107.979C48.2662 102.038 43.5961 97.2212 37.8352 97.2212C32.0744 97.2212 27.4043 102.038 27.4043 107.979C27.4043 113.92 32.0744 118.737 37.8352 118.737Z" fill="white"/>
<path d="M149.64 100.305C147.603 95.0069 140.481 78.8193 127.796 73.4613C127.698 73.4194 127.596 73.3925 127.492 73.3776L86.8085 67.3681C86.1392 67.2695 85.5134 67.7417 85.4062 68.432L84.6934 72.9742C84.6441 73.285 84.7079 73.6047 84.873 73.8707C86.9389 77.1757 100.18 99.6149 78.9767 99.6149C57.7729 99.6149 51.9287 83.9651 51.0015 81.201C50.9145 80.941 50.9116 80.6601 50.9899 80.3971L57.4165 59.4043C57.5295 59.0308 57.4686 58.6483 57.2832 58.3435L60.1082 52.9317L65.2831 55.9528L67.9633 55.9857L77.1107 60.9164L78.9738 57.7787L60.1082 48.0727C60.1082 48.0727 60.1401 45.8255 54.0554 44.0325L44.4937 39.55L43.3347 41.0442L46.2322 43.4348L46.522 45.2278L48.5502 45.8255L52.6067 53.8939L51.4477 56.2068L52.8559 56.9151L52.4531 56.8194C51.8707 56.682 51.2767 56.9927 51.0391 57.5575L44.6473 72.6664C44.5488 72.8965 44.3865 73.0937 44.1808 73.2312L41.9034 74.7462C41.6919 74.8867 41.5238 75.0929 41.4282 75.3349L38.8262 81.8405C38.7451 82.0437 38.7219 82.2558 38.7422 82.462C35.4999 83.0955 25.9701 85.8328 20.7344 96.6295L26.8191 101.71C26.8191 101.71 36.3576 95.3446 52.1199 101.973C54.8609 106.371 58.8565 110.02 64.6283 110.364C79.843 111.272 105.051 112.169 107.949 108.583C110.07 105.956 111.544 104.318 112.185 103.628C112.411 103.386 112.718 103.246 113.042 103.234L148.522 102.065C149.383 102.038 149.953 101.136 149.638 100.311L149.64 100.305Z" fill="#007E24"/>
<path d="M125.985 73.4822C125.93 73.4822 125.875 73.4822 125.82 73.4792L87.0575 71.9313C85.3422 71.8626 83.8732 70.736 83.314 69.0625L82.7837 67.4698C82.352 66.1728 82.5403 64.7803 83.2995 63.6537C84.0615 62.5271 85.2611 61.8637 86.591 61.8308L126.64 60.8806C127.88 60.8507 129.074 61.3975 129.882 62.3837C130.691 63.3698 131.021 64.6608 130.786 65.9308L130.03 70.0188C129.656 72.0478 127.967 73.4792 125.982 73.4792L125.985 73.4822Z" fill="#3F3D56"/>
<path d="M37.8353 114.105C41.1158 114.105 43.7752 111.363 43.7752 107.979C43.7752 104.596 41.1158 101.853 37.8353 101.853C34.5549 101.853 31.8955 104.596 31.8955 107.979C31.8955 111.363 34.5549 114.105 37.8353 114.105Z" fill="#3F3D56"/>
<path d="M141.56 90.5395C140.632 90.5395 139.749 90.0285 139.276 89.1469L136.341 83.6664C135.875 82.7968 135.904 81.7778 136.414 80.9381C136.924 80.0954 137.804 79.6232 138.761 79.677L144.089 79.9579C145.08 80.0117 145.972 80.6542 146.361 81.5985L147.917 85.3936C148.201 86.0899 148.195 86.8489 147.896 87.5392C147.598 88.2265 147.053 88.7435 146.364 88.9885L142.417 90.393C142.136 90.4946 141.846 90.5424 141.562 90.5424L141.56 90.5395Z" fill="#3F3D56"/>
<path d="M74.1786 126.964C74.1351 126.964 74.0887 126.964 74.0453 126.955L72.8631 126.82C72.4777 126.776 72.1416 126.551 71.9446 126.205C71.7476 125.858 71.7215 125.449 71.8722 125.078L78.0264 110.005C78.1945 109.593 78.5682 109.3 79 109.243C79.4201 109.189 79.8287 109.36 80.0981 109.697C80.3647 110.035 80.4458 110.483 80.3096 110.896L75.3405 126.103C75.1724 126.617 74.6972 126.961 74.1815 126.961L74.1786 126.964Z" fill="#3F3D56"/>
<path d="M106.129 21.7787C106.129 21.7787 103.878 17.1349 104.327 12.9573L96.834 16.9616L97.1237 24.5638L106.129 21.7787Z" fill="#A0616A"/>
<path d="M101.479 19.1072C105.212 19.1072 108.238 15.9859 108.238 12.1355C108.238 8.28516 105.212 5.16382 101.479 5.16382C97.7452 5.16382 94.7188 8.28516 94.7188 12.1355C94.7188 15.9859 97.7452 19.1072 101.479 19.1072Z" fill="#A0616A"/>
<path d="M108.383 121.603H104.257L102.295 105.194H108.383V121.603Z" fill="#A0616A"/>
<path d="M94.2522 121.504C94.1247 121.728 94.0552 122.449 94.0552 122.706C94.0552 123.503 94.681 124.149 95.4547 124.149H108.227C108.754 124.149 109.183 123.707 109.183 123.163V122.613C109.183 122.613 109.815 120.963 108.514 118.934C108.514 118.934 106.897 120.524 104.48 118.035L103.768 116.705L98.61 120.596L95.7502 120.957C95.1243 121.038 94.5709 120.945 94.2493 121.504H94.2522Z" fill="#2F2E41"/>
<path d="M96.2226 21.7788L106.129 20.3862L113.784 24.1007L114.233 52.89C114.233 52.89 95.4055 55.2119 92.4385 52.1937C89.4715 49.1755 91.7228 25.0301 91.7228 25.0301L96.2255 21.7788H96.2226Z" fill="#E6E6E6"/>
<path d="M99.7863 13.9106H97.9696C97.9696 13.9106 96.3933 11.9085 96.6049 13.1277C96.8164 14.3469 95.9674 15.6588 95.9674 15.6588L94.6954 15.2225C94.6954 15.2225 92.1514 4.18672 99.7863 3.58009C107.421 2.97347 109.119 9.09948 109.119 9.09948C109.119 9.09948 108.696 12.1625 107.847 11.2869C106.998 10.4113 102.333 9.97505 102.333 9.97505L99.7892 13.9136L99.7863 13.9106Z" fill="#2F2E41"/>
<path d="M94.9796 117.915L91.013 119.069L84.8008 103.831L90.6595 102.125L94.9796 117.915Z" fill="#A0616A"/>
<path d="M81.3555 121.782C81.2918 122.033 81.4164 122.744 81.483 122.995C81.6916 123.763 82.4653 124.209 83.2099 123.993L95.501 120.413C96.0081 120.267 96.3036 119.72 96.1617 119.197L96.0168 118.668C96.0168 118.668 96.1906 116.905 94.4029 115.315C94.4029 115.315 93.2671 117.3 90.2856 115.578L89.2483 114.497L85.3106 119.684L82.6565 120.835C82.077 121.086 81.5178 121.155 81.3555 121.782Z" fill="#2F2E41"/>
<path d="M112.88 50.1047L114.231 54.3182V68.7965L110.177 112.497H102.261L101.369 81.3026L102.073 65.8949L86.9739 89.4547L93.6091 106.282L86.3046 111.305C86.3046 111.305 75.3811 85.6326 77.0153 83.1434C78.6495 80.6571 93.2875 51.2911 93.2875 51.2911C93.2875 51.2911 112.874 50.5709 112.874 50.1077L112.88 50.1047Z" fill="#2F2E41"/>
<path d="M116.934 33.3882L119.11 37.0638C119.11 37.0638 122.187 49.5369 119.11 49.5877C116.033 49.6385 109.82 43.2316 109.82 43.2316L110.632 39.8877L112.883 40.8171L112.434 33.3882H116.937H116.934Z" fill="#A0616A"/>
<path d="M110.18 24.0439C110.18 24.0439 117.383 22.735 118.058 27.597C118.733 32.4589 119.11 37.0669 119.11 37.0669L111.304 37.7333L110.18 24.0439Z" fill="#E6E6E6"/>
<path d="M111.744 42.8248C112.396 41.8811 111.442 40.0271 109.613 38.6838C107.784 37.3405 105.774 37.0166 105.122 37.9602C104.47 38.9039 105.424 40.7579 107.253 42.1012C109.082 43.4445 111.093 43.7685 111.744 42.8248Z" fill="#A0616A"/>
<path d="M171.091 91.6782C170.175 91.7798 169.175 91.9322 168.112 92.1563C163.607 93.1036 163.511 96.2592 163.551 96.9824L163.52 96.9615C163.068 97.7115 162.784 98.4706 162.61 99.1848L162.404 89.5116C162.537 89.2248 162.659 88.899 162.76 88.5673C163.097 89.6401 163.65 90.6502 164.128 90.5844C164.748 90.4978 165.018 88.6151 164.902 87.2794C165.69 88.3253 167.017 89.4459 167.518 89.0992C167.918 88.8243 167.68 87.6888 167.246 86.6548C168.156 87.2196 169.164 87.5902 169.477 87.2316C169.903 86.7415 168.88 85.071 167.938 84.1387C169.199 84.2612 170.804 84.052 170.911 83.4603C170.998 82.9732 170.042 82.3576 169.019 81.9602C170.045 81.6823 171.007 81.1952 170.975 80.7141C170.937 80.1433 169.512 79.7578 168.28 79.701C169.207 78.954 170.059 77.917 169.798 77.4509C169.558 77.0205 168.445 77.1879 167.417 77.5674C168.025 76.6709 168.454 75.6579 168.127 75.3112C167.721 74.8809 166.281 75.625 165.296 76.4468C165.487 75.1648 165.391 73.5481 164.832 73.4017C164.366 73.2792 163.705 74.2205 163.253 75.2455C163.053 74.1697 162.647 73.1477 162.181 73.1477C161.515 73.1477 160.976 75.2186 160.976 76.5693C160.976 76.647 160.976 76.7187 160.981 76.7875C160.915 76.7068 160.837 76.6231 160.75 76.5364C159.811 75.5951 157.994 74.5522 157.528 75.0453C157.203 75.3919 157.629 76.402 158.238 77.3014C157.209 76.9219 156.093 76.7546 155.856 77.1849C155.534 77.7616 156.91 79.205 158.029 79.9043C157.962 79.8953 157.89 79.8893 157.814 79.8833C156.508 79.7907 154.468 80.2061 154.422 80.8904C154.39 81.3715 155.349 81.8586 156.377 82.1365C155.355 82.5339 154.401 83.1495 154.485 83.6366C154.59 84.2283 156.195 84.4375 157.458 84.315C156.516 85.2473 155.494 86.9178 155.92 87.4079C156.232 87.7665 157.241 87.3959 158.151 86.8311C157.713 87.8651 157.478 89.0006 157.878 89.2756C158.406 89.6401 159.857 88.3701 160.619 87.2794C160.541 88.6151 160.851 90.45 161.465 90.5217C161.723 90.5516 161.996 90.2677 162.242 89.8344L161.546 100.231C161.384 101.441 162.424 102.233 162.517 102.729L162.668 109.769C162.497 109.267 162.271 108.753 161.961 108.245L161.929 108.266C161.969 107.543 161.874 104.387 157.368 103.44C156.305 103.216 155.305 103.064 154.39 102.962C153.309 102.842 152.886 104.369 153.862 104.863C155.276 105.577 156.606 106.476 157.302 107.54C159.075 110.262 161.523 108.691 161.874 108.445C162.262 109.115 162.517 109.787 162.679 110.427L162.76 114.165C162.74 114.255 162.729 114.303 162.726 114.306L162.763 114.317L162.957 123.366L164.748 123.351L164.108 114.102C164.215 113.603 164.545 111.903 164.108 110.14L163.467 102.872L162.633 100.016C162.755 99.131 163.036 98.1388 163.609 97.1557C163.957 97.4007 166.408 98.9756 168.182 96.2502C168.874 95.1864 170.207 94.2869 171.621 93.5727C172.597 93.0797 172.177 91.5526 171.094 91.6722L171.091 91.6782ZM162.911 113.086L162.876 111.503C162.943 112.1 162.94 112.641 162.911 113.086Z" fill="#F2F2F2"/>
<path d="M150.237 122.242L153.352 121.549L152.237 108.837L147.644 109.859L150.237 122.242Z" fill="#A0616A"/>
<path d="M160.888 119.795C161.022 119.941 161.187 120.473 161.227 120.671C161.355 121.271 160.984 121.866 160.399 121.994L150.759 124.143C150.362 124.233 149.968 123.97 149.881 123.56L149.794 123.145C149.794 123.145 149.055 122.006 149.716 120.255C149.716 120.255 151.187 121.185 152.616 118.896L152.943 117.772L157.452 119.84L159.665 119.634C160.149 119.589 160.555 119.425 160.885 119.795H160.888Z" fill="#2F2E41"/>
<path d="M155.806 121.271L158.402 119.371L152.529 108.135L148.696 110.938L155.806 121.271Z" fill="#A0616A"/>
<path d="M164.664 114.697C164.84 114.778 165.197 115.199 165.307 115.364C165.652 115.866 165.539 116.562 165.052 116.917L157.009 122.804C156.675 123.046 156.218 122.966 155.98 122.625L155.742 122.278C155.742 122.278 154.63 121.531 154.569 119.652C154.569 119.652 156.275 119.909 156.719 117.225L156.591 116.06L161.526 116.132L163.484 115.044C163.913 114.805 164.223 114.491 164.667 114.697H164.664Z" fill="#2F2E41"/>
<path d="M118.391 58.4122C118.391 58.4122 113.549 65.2017 123.233 72.8368L143.008 66.3193L135.944 51.1268L129.688 47.5886L118.388 58.4093L118.391 58.4122Z" fill="#2F2E41"/>
<path d="M143.011 66.3224L150.678 81.7211L155.522 113.774L149.47 114.189L143.414 83.804L132.719 67.3624L140.186 63.8242" fill="#2F2E41"/>
<path d="M123.236 68.0018V72.8398L136.958 88.382C136.958 88.382 136.958 100.036 142.206 105.448L148.258 115.023L153.506 112.109L145.839 84.2223L132.117 65.907L123.239 68.0018H123.236Z" fill="#2F2E41"/>
<path d="M132.986 20.0425L130.401 30.2057L120.547 28.2066C120.547 28.2066 127.423 20.8942 126.455 17.5623L132.989 20.0425H132.986Z" fill="#A0616A"/>
<path d="M125.455 21.5754L131.508 24.489C131.508 24.489 134.623 26.4523 134.681 27.7612C134.739 29.0701 134.333 35.3126 134.333 35.3126C134.333 35.3126 136.756 37.8109 135.142 42.8043L135.95 51.1297L117.789 61.1196L119.402 43.638L118.594 27.4056L125.455 21.5784V21.5754Z" fill="#007E24"/>
<path d="M120.023 68.946C120.732 70.6225 122.146 71.6056 123.181 71.1394C124.215 70.6733 124.479 68.9371 123.772 67.2606C123.497 66.5853 123.071 65.9906 122.526 65.5214L119.434 58.4541L116.25 60.02L119.634 66.8213C119.597 67.5505 119.73 68.2796 120.023 68.946Z" fill="#A0616A"/>
<path d="M123.236 28.4457C123.236 28.4457 118.797 25.5321 117.183 28.8611C115.569 32.1901 111.936 49.2562 111.936 49.2562L117.183 65.4887L122.025 63.4088L117.786 45.9392L123.233 28.4457H123.236Z" fill="#007E24"/>
<path d="M145.99 66.3254C147.248 67.6163 148.914 67.9929 149.71 67.1651C150.507 66.3373 150.131 64.6251 148.873 63.3341C148.378 62.8112 147.766 62.4197 147.094 62.1896L141.696 56.7927L139.294 59.4583L144.869 64.4936C145.095 65.1869 145.48 65.8144 145.99 66.3224V66.3254Z" fill="#A0616A"/>
<path d="M134.51 27.4506C134.51 27.4506 126.771 27.1249 126.458 30.8334C126.148 34.5419 131.439 51.0911 131.439 51.0911L142.116 64.1888L145.874 60.4146L135.695 45.7839L134.513 27.4506H134.51Z" fill="#007E24"/>
<path d="M89.2917 27.6179L85.2005 28.4905C85.2005 28.4905 74.2654 34.6972 76.3342 37.049C78.4001 39.4008 87.1824 39.7026 87.1824 39.7026L88.9962 36.8069L86.7999 35.7461L92.3688 31.0096L89.2917 27.6179Z" fill="#A0616A"/>
<path d="M100.523 26.318C100.523 26.318 96.527 19.9977 92.6241 22.8127C88.7212 25.6277 85.2036 28.4905 85.2036 28.4905L90.0656 34.8227L100.525 26.318H100.523Z" fill="#E6E6E6"/>
<path d="M94.1232 39.6368C94.346 38.5012 92.7428 37.2084 90.5422 36.7491C88.3417 36.2899 86.3772 36.8381 86.1544 37.9737C85.9316 39.1092 87.5349 40.4021 89.7354 40.8613C91.9359 41.3206 93.9004 40.7724 94.1232 39.6368Z" fill="#A0616A"/>
<path d="M169.685 126.088C171.036 126.088 172.131 124.959 172.131 123.566C172.131 122.173 171.036 121.044 169.685 121.044C168.335 121.044 167.24 122.173 167.24 123.566C167.24 124.959 168.335 126.088 169.685 126.088Z" fill="#3F3D56"/>
<path d="M172.945 130C174.296 130 175.39 128.871 175.39 127.478C175.39 126.085 174.296 124.956 172.945 124.956C171.594 124.956 170.5 126.085 170.5 127.478C170.5 128.871 171.594 130 172.945 130Z" fill="#3F3D56"/>
<path d="M197.394 130C198.744 130 199.839 128.871 199.839 127.478C199.839 126.085 198.744 124.956 197.394 124.956C196.043 124.956 194.948 126.085 194.948 127.478C194.948 128.871 196.043 130 197.394 130Z" fill="#3F3D56"/>
<path d="M176.526 89.7356V62.3479C176.526 59.2819 179.012 58.5228 181.985 58.5228C183.443 58.5228 184.15 58.3495 185.172 59.4193C186.195 60.4891 187.331 60.9344 187.308 62.4375L186.879 89.3113L176.523 89.7327L176.526 89.7356ZM182.275 60.3188C179.621 60.3188 177.106 59.6136 177.106 62.3508V89.1171L186.311 88.7405L186.731 62.4315C186.752 61.0898 184.636 61.2751 183.727 60.3188C182.814 59.3625 183.579 60.3188 182.278 60.3188H182.275Z" fill="#3F3D56"/>
<path d="M169.248 89.4039L168.877 119.326C168.871 119.711 168.961 120.091 169.135 120.431L171.876 125.771C172.278 126.557 173.084 127.033 173.944 126.994L198.011 125.9C199.242 125.843 200.196 124.767 200.141 123.497L198.631 89.3321C198.576 88.104 197.597 87.1357 196.403 87.1357H171.476C170.256 87.1357 169.262 88.1488 169.245 89.4069L169.248 89.4039Z" fill="#E6E6E6"/>
<path d="M178.734 102.908L178.154 102.878L178.369 98.4494C178.485 96.0648 180.388 94.1523 182.703 94.0955L192.952 93.8504C195.021 93.8146 196.736 95.4312 196.849 97.5649L197.066 101.614L196.487 101.647L196.269 97.5978C196.171 95.7898 194.708 94.4033 192.963 94.4481L182.715 94.6931C180.701 94.741 179.047 96.4054 178.945 98.4793L178.731 102.908H178.734Z" fill="#3F3D56"/>
<path d="M178.326 124.358L177.749 124.298L178.998 111.729C179.23 109.405 181.11 107.573 183.373 107.468L193.369 107.005C194.63 106.945 195.826 107.405 196.742 108.299C197.658 109.192 198.168 110.4 198.182 111.7L198.295 122.643L197.716 122.649L197.603 111.706C197.591 110.57 197.145 109.515 196.345 108.732C195.545 107.949 194.494 107.549 193.398 107.6L183.402 108.063C181.423 108.155 179.78 109.754 179.577 111.786L178.329 124.355L178.326 124.358Z" fill="#3F3D56"/>
<path d="M173.846 123.489L173.267 123.48L173.632 94.7561C173.658 92.7927 175.167 91.2089 177.071 91.1492L196.774 90.5515L196.791 91.1492L177.088 91.7468C175.495 91.7946 174.231 93.1185 174.211 94.762L173.846 123.486V123.489Z" fill="#3F3D56"/>
<path d="M173.898 119.398H173.495V93.238C173.495 92.4102 172.843 91.7349 172.038 91.7349H169.787V91.1372H172.038C173.101 91.1372 173.976 91.9829 174.066 93.0527C174.072 93.1125 174.075 93.1752 174.075 93.238V105.624L173.898 119.398Z" fill="#3F3D56"/>
<path d="M137.192 14.6097C137.192 18.4407 134.182 21.5455 130.467 21.5455C126.753 21.5455 123.742 18.4407 123.742 14.6097C123.742 10.7787 126.753 7.67383 130.467 7.67383C134.182 7.67383 137.192 10.7787 137.192 14.6097Z" fill="#A0616A"/>
<path d="M129.931 5.28627C130.125 5.40281 130.386 5.2265 130.45 5.00238C130.514 4.77826 130.438 4.54218 130.369 4.32105C130.247 3.9505 130.128 3.58294 130.007 3.21239C129.749 2.42647 129.476 1.61365 128.92 1.01599C128.08 0.113524 126.741 -0.116575 125.539 0.0507698C123.994 0.265927 122.47 1.12656 121.752 2.55497C121.033 3.98337 121.34 5.97358 122.638 6.86409C120.787 9.05153 120.144 11.49 120.245 14.3886C120.346 17.2903 123.412 19.9588 125.411 22.0028C125.857 21.7249 126.263 20.416 126.017 19.9409C125.771 19.4658 126.124 18.9159 125.82 18.4766C125.516 18.0403 125.261 18.7366 125.568 18.3003C125.762 18.0254 125.006 17.3949 125.292 17.2305C126.686 16.4356 127.15 14.6426 128.025 13.271C129.082 11.6155 130.888 10.4949 132.803 10.3096C133.857 10.208 134.97 10.3933 135.834 11.0238C136.697 11.6543 137.256 12.7809 137.056 13.8537C137.575 13.3099 137.833 12.515 137.737 11.7589C137.639 11.0029 137.19 10.3036 136.549 9.91813C136.937 8.59432 136.604 7.07029 135.703 6.04829C134.802 5.0233 131.148 5.19961 129.833 5.46856L129.934 5.28926L129.931 5.28627Z" fill="#2F2E41"/>
<path d="M129.729 10.3484C127.987 10.5426 126.73 12.0995 125.666 13.5369C125.055 14.3647 124.412 15.2791 124.429 16.322C124.444 17.3739 125.127 18.2793 125.455 19.2744C125.988 20.9061 125.469 22.8455 124.2 23.9631C125.455 24.2081 126.811 23.2399 127.025 21.94C127.277 20.4309 126.168 18.9726 126.298 17.4456C126.414 16.1009 127.442 15.0669 128.315 14.0599C129.19 13.0528 130.01 11.72 129.607 10.435L129.729 10.3484Z" fill="#2F2E41"/>
<g clip-path="url(#clip1_17_196)">
<path d="M301.218 124.089V95.8208C301.218 92.1339 299.798 88.5981 297.271 85.9911C294.743 83.3841 291.314 81.9195 287.74 81.9194H218.575C215 81.9194 211.572 83.3841 209.044 85.9911C206.516 88.5981 205.096 92.1339 205.096 95.8208V124.089H301.218Z" fill="white"/>
<path d="M205.096 128.528V172.332C205.096 176.019 206.516 179.554 209.044 182.161C211.572 184.768 215 186.233 218.575 186.233H287.74C291.314 186.233 294.743 184.768 297.271 182.161C299.798 179.554 301.218 176.019 301.218 172.332V128.528H205.096Z" fill="white"/>
</g>
</g>
<defs>
<clipPath id="clip0_17_196">
<rect width="212" height="130" fill="white"/>
</clipPath>
<clipPath id="clip1_17_196">
<rect width="1265.88" height="609.404" fill="white" transform="translate(-455.736 -295.891)"/>
</clipPath>
</defs>
</svg>
