<svg width="32" height="28" viewBox="0 0 32 28" fill="none" xmlns="http://www.w3.org/2000/svg">
<path d="M29 26H3C1.34 26 0 24.66 0 23V5C0 3.34 1.34 2 3 2H29C30.66 2 32 3.34 32 5V23C32 24.66 30.66 26 29 26ZM3 4C2.44 4 2 4.44 2 5V23C2 23.56 2.44 24 3 24H29C29.56 24 30 23.56 30 23V5C30 4.44 29.56 4 29 4H3Z" fill="white"/>
<path d="M15.9998 17.92C14.5998 17.92 13.3198 17.36 12.3598 16.34L1.85985 5.17999C1.47985 4.77999 1.49985 4.13999 1.89985 3.75999C2.29985 3.37999 2.93985 3.39999 3.31985 3.79999L13.8198 14.96C14.9598 16.18 17.0398 16.18 18.1798 14.96L28.6798 3.81999C29.0598 3.41999 29.6998 3.39999 30.0998 3.77999C30.4998 4.15999 30.5198 4.79999 30.1398 5.19999L19.6398 16.36C18.6798 17.38 17.3998 17.94 15.9998 17.94V17.92Z" fill="white"/>
</svg>
