<svg width="43" height="37" viewBox="0 0 43 37" fill="none" xmlns="http://www.w3.org/2000/svg">
<path d="M14.4837 26.8011C14.4837 26.8011 7.29016 25.231 5.14144 25.859C2.99272 26.4871 6.57392 28.7261 6.57392 28.7261C6.57392 28.7261 4.78332 29.6408 3.70896 31.8526C2.6346 34.0643 7.29017 33.1086 7.29017 33.1086C7.29017 33.1086 5.87325 34.6923 7.30573 35.9484C8.73821 37.2044 15.2155 30.9105 15.2155 30.9105C15.2155 30.9105 19.8866 33.4363 24.1997 33.1222C28.5127 32.8082 31.0351 31.8662 33.9 28.0844C36.7806 24.3026 38.9293 22.4186 38.9293 22.4186L41.8098 21.4765L37.4968 19.2648C37.4968 19.2648 33.9 16.425 30.3033 16.739C26.7065 17.0531 25.274 17.9951 25.274 17.9951C25.274 17.9951 23.1253 12.9573 19.8866 11.0596C16.648 9.16184 6.5895 6.64973 3.35085 5.06602C0.112197 3.49596 0.828417 6.00806 1.91835 7.59177C2.99271 9.16183 6.23136 10.4315 7.66384 11.0596C9.09632 11.6876 0.112183 12.0016 1.56023 13.5853C2.99271 15.1553 8.39565 15.797 8.39565 15.797C8.39565 15.797 3.36641 17.3671 4.44077 18.6368C5.51513 19.8928 9.82813 19.8928 9.82813 19.8928C9.82813 19.8928 8.39566 23.0466 10.5444 23.0466C12.6931 23.0466 12.6931 23.0466 12.6931 23.0466C12.6931 23.0466 11.6032 27.4427 14.4837 26.8011Z" fill="#92E3A9" stroke="#263238" stroke-miterlimit="10" stroke-linecap="round" stroke-linejoin="round"/>
<path d="M25.2738 17.9815C25.2738 17.9815 28.1544 12.9437 26.7063 9.78989C25.2739 6.63613 11.9767 -1.55547 12.3348 1.5983C12.6929 4.75206 16.2897 6.63613 16.2897 6.63613C16.2897 6.63613 10.9023 5.06608 10.9023 6.32213C10.9023 7.57817 10.9023 7.57817 10.9023 7.57817C10.9023 7.57817 17.006 8.83421 19.8865 11.0459C22.7515 13.2577 25.2738 17.9815 25.2738 17.9815Z" fill="#263238" stroke="#263238" stroke-miterlimit="10" stroke-linecap="round" stroke-linejoin="round"/>
<path d="M33.6823 21.3811C34.2756 21.3811 34.7566 20.9594 34.7566 20.4391C34.7566 19.9188 34.2756 19.4971 33.6823 19.4971C33.0889 19.4971 32.6079 19.9188 32.6079 20.4391C32.6079 20.9594 33.0889 21.3811 33.6823 21.3811Z" fill="#263238"/>
<path d="M19.2482 30.0641C19.9021 31.9755 23.3276 32.7673 26.9088 31.8389C30.49 30.9106 32.8723 28.6033 32.2184 26.6919C31.5644 24.7805 28.1389 23.9887 24.5577 24.9171C20.9765 25.8591 18.5942 28.1527 19.2482 30.0641Z" fill="white" stroke="#263238" stroke-width="0.5" stroke-miterlimit="10" stroke-linecap="round" stroke-linejoin="round"/>
</svg>
