<svg width="48" height="48" viewBox="0 0 48 48" fill="none" xmlns="http://www.w3.org/2000/svg">
<path d="M18.6213 23.6213C19.1839 23.0587 19.5 22.2957 19.5 21.5C19.5 20.7044 19.1839 19.9413 18.6213 19.3787C18.0587 18.8161 17.2956 18.5 16.5 18.5C15.7044 18.5 14.9413 18.8161 14.3787 19.3787C13.8161 19.9413 13.5 20.7044 13.5 21.5C13.5 22.2957 13.8161 23.0587 14.3787 23.6213C14.9413 24.1839 15.7044 24.5 16.5 24.5C17.2956 24.5 18.0587 24.1839 18.6213 23.6213ZM16.5 35.5C17.2956 35.5 18.0587 35.1839 18.6213 34.6213C19.1839 34.0587 19.5 33.2957 19.5 32.5C19.5 31.7043 19.1839 30.9413 18.6213 30.3787C18.0587 29.8161 17.2956 29.5 16.5 29.5C15.7044 29.5 14.9413 29.8161 14.3787 30.3787C13.8161 30.9413 13.5 31.7043 13.5 32.5C13.5 33.2957 13.8161 34.0587 14.3787 34.6213C14.9413 35.1839 15.7044 35.5 16.5 35.5ZM7.12348 7.12348C5.76384 8.48311 5 10.3272 5 12.25V35.75C5 37.6728 5.76384 39.5169 7.12348 40.8765C8.48311 42.2362 10.3272 43 12.25 43H35.75C37.6728 43 39.5169 42.2362 40.8765 40.8765C42.2362 39.5169 43 37.6728 43 35.75V12.25C43 10.3272 42.2362 8.48311 40.8765 7.12348C39.5169 5.76384 37.6728 5 35.75 5H12.25C10.3272 5 8.48311 5.76384 7.12348 7.12348ZM19.7336 20.1606C19.9095 20.5852 20 21.0404 20 21.5C20 22.4283 19.6313 23.3185 18.9749 23.9749C18.3185 24.6313 17.4283 25 16.5 25C15.5717 25 14.6815 24.6313 14.0251 23.9749C13.3687 23.3185 13 22.4283 13 21.5C13 21.0404 13.0905 20.5852 13.2664 20.1606C13.4423 19.736 13.7001 19.3501 14.0251 19.0251C14.3501 18.7001 14.736 18.4423 15.1606 18.2664C15.5852 18.0905 16.0404 18 16.5 18C16.9596 18 17.4148 18.0905 17.8394 18.2664C18.264 18.4423 18.6499 18.7001 18.9749 19.0251C19.2999 19.3501 19.5577 19.736 19.7336 20.1606ZM18.9749 34.9749C18.3185 35.6313 17.4283 36 16.5 36C15.5717 36 14.6815 35.6313 14.0251 34.9749C13.3687 34.3185 13 33.4283 13 32.5C13 31.5717 13.3687 30.6815 14.0251 30.0251C14.6815 29.3687 15.5717 29 16.5 29C17.4283 29 18.3185 29.3687 18.9749 30.0251C19.6313 30.6815 20 31.5717 20 32.5C20 33.4283 19.6313 34.3185 18.9749 34.9749ZM13.0732 12.0732C13.1201 12.0263 13.1837 12 13.25 12H34.75C34.8163 12 34.8799 12.0263 34.9268 12.0732C34.9737 12.1201 35 12.1837 35 12.25C35 12.3163 34.9737 12.3799 34.9268 12.4268C34.8799 12.4737 34.8163 12.5 34.75 12.5H13.25C13.1837 12.5 13.1201 12.4737 13.0732 12.4268C13.0263 12.3799 13 12.3163 13 12.25C13 12.1837 13.0263 12.1201 13.0732 12.0732ZM24.25 22C24.1123 22 24 21.8877 24 21.75C24 21.6123 24.1123 21.5 24.25 21.5H34.75C34.8163 21.5 34.8799 21.5263 34.9268 21.5732C34.9737 21.6201 35 21.6837 35 21.75C35 21.8163 34.9737 21.8799 34.9268 21.9268C34.8799 21.9737 34.8163 22 34.75 22H24.25ZM24.0732 32.0732C24.1201 32.0263 24.1837 32 24.25 32H34.75C34.8163 32 34.8799 32.0263 34.9268 32.0732C34.9737 32.1201 35 32.1837 35 32.25C35 32.3163 34.9737 32.3799 34.9268 32.4268C34.8799 32.4737 34.8163 32.5 34.75 32.5H24.25C24.1837 32.5 24.1201 32.4737 24.0732 32.4268C24.0263 32.3799 24 32.3163 24 32.25C24 32.1837 24.0263 32.1201 24.0732 32.0732Z" stroke="white" stroke-width="2"/>
</svg>
