<svg width="134" height="27" viewBox="0 0 134 27" fill="none" xmlns="http://www.w3.org/2000/svg">
<path d="M13.9265 13.8348C14.5244 13.8348 15.1031 13.8855 15.6818 13.9363C19.3466 5.78423 28.3737 0 38.9825 0C48.2218 0 56.2459 4.38049 60.6052 10.9089C62.9005 10.0125 65.4466 9.50509 68.1278 9.50509C78.3701 9.50509 86.6836 16.7946 86.6836 25.7754C86.6836 25.8599 86.6643 25.9446 86.6643 26.0291H63.5757H27.8336H0C0 19.2977 6.23026 13.8348 13.9265 13.8348Z" fill="#92E3A9"/>
<path d="M126.9 19.9404C126.611 19.9404 126.322 19.9573 126.013 19.9911C124.181 15.9151 119.667 13.0229 114.363 13.0229C109.753 13.0229 105.721 15.2216 103.542 18.4858C102.385 18.0461 101.111 17.7755 99.7805 17.7755C94.6497 17.7755 90.4834 21.4287 90.4834 25.9106C90.4834 25.9614 90.5026 25.9952 90.5026 26.0459H102.057H119.937H133.864C133.864 22.6633 130.739 19.9404 126.9 19.9404Z" fill="#76B586"/>
</svg>
