<svg width="687" height="343" viewBox="0 0 687 343" fill="none" xmlns="http://www.w3.org/2000/svg">
<g clip-path="url(#clip0_17_739)">
<path d="M187.573 280.015C206.224 280.015 221.343 264.896 221.343 246.246C221.343 227.595 206.224 212.476 187.573 212.476C168.923 212.476 153.804 227.595 153.804 246.246C153.804 264.896 168.923 280.015 187.573 280.015Z" fill="#E4E4E4"/>
<path opacity="0.2" d="M162.639 223.69C159.489 231.058 159.062 239.307 161.433 246.961C163.805 254.616 168.821 261.177 175.585 265.474C182.35 269.77 190.421 271.521 198.358 270.414C206.294 269.307 213.579 265.414 218.909 259.431C216.985 263.933 214.105 267.962 210.469 271.241C206.833 274.519 202.527 276.967 197.851 278.416C193.175 279.865 188.239 280.28 183.386 279.633C178.534 278.985 173.88 277.29 169.747 274.665C165.615 272.04 162.102 268.548 159.453 264.431C156.804 260.314 155.082 255.67 154.406 250.821C153.73 245.973 154.116 241.035 155.537 236.35C156.959 231.665 159.382 227.345 162.639 223.69Z" fill="black"/>
<path d="M187.667 246.246H187.759L189.429 341.988H185.903L187.667 246.246Z" fill="#3F3D56"/>
<path d="M119.248 217.04C156.85 217.04 187.333 186.557 187.333 148.954C187.333 111.351 156.85 80.8679 119.248 80.8679C81.6447 80.8679 51.1616 111.351 51.1616 148.954C51.1616 186.557 81.6447 217.04 119.248 217.04Z" fill="#E4E4E4"/>
<path opacity="0.2" d="M68.975 103.478C62.6242 118.334 61.7626 134.964 66.5444 150.396C71.3262 165.829 81.4396 179.058 95.0776 187.721C108.716 196.383 124.989 199.914 140.991 197.682C156.992 195.45 171.679 187.601 182.426 175.538C178.547 184.614 172.74 192.739 165.409 199.348C158.078 205.957 149.397 210.894 139.969 213.816C130.541 216.737 120.59 217.574 110.806 216.268C101.022 214.962 91.6388 211.545 83.3067 206.253C74.9747 200.96 67.8928 193.92 62.5518 185.619C57.2109 177.318 53.7385 167.955 52.3752 158.179C51.012 148.403 51.7904 138.448 54.6568 129.002C57.5231 119.557 62.4087 110.848 68.975 103.478Z" fill="black"/>
<path d="M119.435 148.953H119.622L122.989 341.988H115.881L119.435 148.953Z" fill="#3F3D56"/>
<path d="M568.14 242.075H256.063V334.587H568.14V242.075Z" fill="#F0F0F0"/>
<path d="M430.296 261.194H393.907V334.587H430.296V261.194Z" fill="#CACACA"/>
<path d="M549.945 132.91H274.258V218.021H549.945V132.91Z" fill="#F0F0F0"/>
<path d="M577.895 138.152H246.308C245.754 138.152 245.214 137.987 244.755 137.677C244.296 137.367 243.94 136.927 243.734 136.414C243.527 135.9 243.478 135.336 243.594 134.795C243.71 134.254 243.986 133.76 244.385 133.376L335.008 46.2684V8.32615C335.009 7.59033 335.301 6.88488 335.822 6.36457C336.342 5.84427 337.047 5.5516 337.783 5.55077H355.669C356.405 5.55157 357.11 5.84424 357.631 6.36455C358.151 6.88486 358.444 7.59032 358.444 8.32615V23.7413L365.289 17.1618C376.49 6.39513 391.351 0.266831 406.886 0.00851021C422.42 -0.24981 437.477 5.38099 449.03 15.7693L579.751 133.313C580.169 133.688 580.462 134.181 580.594 134.727C580.725 135.273 580.688 135.846 580.487 136.37C580.286 136.895 579.93 137.346 579.468 137.664C579.005 137.982 578.457 138.152 577.895 138.152Z" fill="#CACACA"/>
<path d="M347.034 154.496C349.343 154.496 351.628 154.951 353.761 155.834C355.894 156.717 357.831 158.012 359.464 159.644C361.096 161.277 362.39 163.214 363.274 165.347C364.157 167.479 364.612 169.765 364.612 172.073V195.818H329.457V172.073C329.457 169.765 329.912 167.479 330.795 165.347C331.678 163.214 332.973 161.277 334.605 159.644C336.238 158.012 338.175 156.717 340.308 155.834C342.44 154.951 344.726 154.496 347.034 154.496Z" fill="white"/>
<path d="M412.102 154.804C416.764 154.804 421.234 156.656 424.531 159.953C427.827 163.249 429.679 167.72 429.679 172.382V196.127H394.524V172.382C394.524 167.72 396.376 163.249 399.673 159.953C402.969 156.656 407.44 154.804 412.102 154.804Z" fill="white"/>
<path d="M477.169 155.113C481.831 155.113 486.301 156.965 489.598 160.261C492.894 163.557 494.746 168.028 494.746 172.69V196.435H459.591V172.69C459.591 168.028 461.443 163.557 464.74 160.261C468.036 156.965 472.507 155.113 477.169 155.113Z" fill="white"/>
<path d="M503.073 260.269C507.734 260.269 512.205 262.121 515.502 265.417C518.798 268.713 520.65 273.184 520.65 277.846V301.591H485.495V277.846C485.495 273.184 487.347 268.713 490.643 265.417C493.94 262.121 498.411 260.269 503.073 260.269Z" fill="white"/>
<path d="M329.149 260.269C333.811 260.269 338.281 262.121 341.578 265.417C344.874 268.713 346.726 273.184 346.726 277.846V301.591H311.571V277.846C311.571 275.538 312.026 273.252 312.909 271.12C313.793 268.987 315.087 267.049 316.72 265.417C318.352 263.785 320.29 262.49 322.422 261.607C324.555 260.723 326.84 260.269 329.149 260.269Z" fill="white"/>
<path d="M613.733 243.519L555.191 217.616C554.876 217.477 554.536 217.405 554.193 217.405H275.191C274.873 217.405 274.557 217.466 274.262 217.586L210.539 243.49C210.009 243.705 209.571 244.098 209.299 244.602C209.026 245.105 208.938 245.687 209.047 246.248C209.157 246.81 209.459 247.316 209.9 247.68C210.342 248.043 210.896 248.242 211.468 248.242H228.001V333.354H226.151V341.988H598.052V333.354H594.968V248.242H612.735C613.3 248.242 613.849 248.048 614.288 247.691C614.728 247.335 615.031 246.839 615.148 246.285C615.265 245.732 615.188 245.155 614.931 244.651C614.673 244.148 614.25 243.748 613.733 243.519ZM590.034 333.354H232.935V248.242H590.034V333.354Z" fill="#CACACA"/>
<path d="M368.929 192.426H323.906V199.827H368.929V192.426Z" fill="#CACACA"/>
<path d="M434.921 192.426H389.898V199.827H434.921V192.426Z" fill="#CACACA"/>
<path d="M500.914 192.426H455.891V199.827H500.914V192.426Z" fill="#CACACA"/>
<path d="M525.584 299.124H480.561V306.525H525.584V299.124Z" fill="#CACACA"/>
<path d="M351.043 299.124H306.021V306.525H351.043V299.124Z" fill="#CACACA"/>
<path d="M686.244 342.366H0.755776C0.555331 342.366 0.363096 342.287 0.221361 342.145C0.0796256 342.003 0 341.811 0 341.611C0 341.41 0.0796256 341.218 0.221361 341.076C0.363096 340.934 0.555331 340.855 0.755776 340.855H686.244C686.445 340.855 686.637 340.934 686.779 341.076C686.92 341.218 687 341.41 687 341.611C687 341.811 686.92 342.003 686.779 342.145C686.637 342.287 686.445 342.366 686.244 342.366Z" fill="#3F3D56"/>
<path d="M513.826 131.641C513.826 132.125 513.819 132.616 513.811 133.1C513.804 133.682 513.789 134.256 513.766 134.838C513.743 135.344 513.721 135.843 513.69 136.342C513.6 138.012 513.456 139.675 513.26 141.345C513.214 141.768 513.161 142.184 513.101 142.607C513.055 142.932 513.01 143.265 512.957 143.597C512.904 143.968 512.851 144.338 512.791 144.708C512.67 145.494 512.534 146.28 512.383 147.066C512.307 147.459 512.232 147.852 512.149 148.245C511.99 149.024 511.816 149.81 511.635 150.588C511.62 150.649 511.605 150.717 511.589 150.777C511.499 151.163 511.408 151.541 511.31 151.926C511.279 152.039 511.257 152.145 511.219 152.258C511.151 152.546 511.075 152.833 511 153.12C510.894 153.521 510.788 153.914 510.675 154.314C510.493 154.934 510.312 155.546 510.123 156.166C510.1 156.23 510.079 156.296 510.063 156.362C509.7 157.534 509.314 158.69 508.891 159.839C508.672 160.444 508.438 161.056 508.204 161.66C507.969 162.265 507.727 162.87 507.478 163.467C507.236 164.049 506.987 164.631 506.737 165.205C506.677 165.341 506.616 165.477 506.548 165.613C506.284 166.21 506.012 166.792 505.732 167.374C505.725 167.382 505.725 167.397 505.717 167.404C505.498 167.873 505.263 168.341 505.029 168.802C505.029 168.816 505.024 168.83 505.014 168.84C504.787 169.294 504.553 169.747 504.311 170.193L503.926 170.926L503.88 171.009C503.397 171.909 502.898 172.8 502.369 173.685C502.255 173.881 502.142 174.078 502.029 174.267C501.915 174.463 501.795 174.66 501.674 174.849C501.598 174.985 501.515 175.121 501.424 175.257C501.265 175.514 501.107 175.778 500.94 176.035C500.91 176.088 500.872 176.141 500.842 176.194C500.555 176.64 500.268 177.078 499.981 177.524C499.625 178.061 499.263 178.59 498.892 179.119L490.685 192.254L490.329 191.959L490.231 191.869H490.224L489.898 191.597L489.007 190.841C488.735 191.105 488.47 191.37 488.198 191.627C488.092 191.732 487.979 191.831 487.873 191.937C487.79 192.012 487.714 192.088 487.631 192.163C473.441 206.02 454.566 214.045 434.742 214.648H434.719C419.712 215.06 404.857 211.554 391.618 204.475C391.323 204.324 391.036 204.172 390.748 203.999C389.025 203.061 387.34 202.071 385.685 201.013C385.677 201.006 385.669 201.006 385.662 200.998C383.742 199.638 381.868 198.187 380.039 196.645C370.227 188.374 362.464 177.943 357.359 166.169C352.255 154.395 349.947 141.599 350.617 128.784C350.639 128.278 350.67 127.779 350.707 127.272C350.828 125.443 351.015 123.622 351.267 121.808C351.335 121.302 351.41 120.795 351.486 120.297H513.055C513.373 122.609 513.592 124.934 513.713 127.272C513.789 128.731 513.826 130.182 513.826 131.641Z" fill="#F0F0F0"/>
<path d="M513.056 120.297C510.147 100.953 500.393 83.2951 485.569 70.5331C470.744 57.771 451.832 50.752 432.271 50.752C412.71 50.752 393.798 57.771 378.973 70.5331C364.148 83.2951 354.395 100.953 351.486 120.297C351.411 120.796 351.335 121.302 351.267 121.808C351.018 123.622 350.831 125.444 350.708 127.273H513.713C513.592 124.937 513.373 122.612 513.056 120.297Z" fill="#007E24"/>
<path d="M437.563 204.473H390.752V167.027C391.616 149.914 406.242 148.532 419.986 149.45C422.294 149.45 424.58 149.904 426.712 150.788C428.845 151.671 430.783 152.966 432.415 154.598C434.047 156.23 435.342 158.168 436.225 160.3C437.108 162.433 437.563 164.718 437.563 167.027V204.473Z" fill="#007E24"/>
<path d="M390.748 177.849V177.857C390.748 177.864 390.756 177.864 390.763 177.864L390.748 177.849ZM371.922 120.297C371.892 120.486 371.854 120.675 371.824 120.864C371.854 120.675 371.892 120.486 371.93 120.297H371.922ZM370.985 127.273C370.962 127.56 370.939 127.847 370.924 128.134C370.939 127.847 370.962 127.56 370.992 127.273C370.991 127.22 370.994 127.167 371 127.114C370.992 127.167 370.992 127.22 370.985 127.273ZM390.748 177.857C390.748 177.864 390.756 177.864 390.763 177.864L390.748 177.849V177.857ZM371.922 120.297C371.892 120.486 371.854 120.675 371.824 120.864C371.854 120.675 371.892 120.486 371.93 120.297H371.922ZM370.924 128.134C370.939 127.847 370.962 127.56 370.992 127.273C370.991 127.22 370.994 127.167 371 127.114C370.992 127.167 370.992 127.22 370.985 127.273C370.962 127.56 370.939 127.847 370.924 128.134ZM604.414 267.167C604.267 267.011 604.11 266.864 603.945 266.728L603.938 266.721L566.512 235.137L565.544 234.321L561.864 231.214L560.941 230.436L555.696 226.007L554.26 224.798L551.29 222.289L549.771 221.004L535.442 208.919L527.226 201.989L526.123 201.059L501.915 180.63C502.286 180.101 502.648 179.572 503.004 179.036C503.291 178.59 503.578 178.151 503.865 177.705C503.895 177.653 503.933 177.6 503.964 177.547C504.13 177.29 504.288 177.025 504.447 176.768C504.538 176.632 504.621 176.496 504.697 176.36C504.818 176.171 504.938 175.975 505.052 175.778C505.165 175.589 505.279 175.393 505.392 175.196C505.921 174.312 506.42 173.42 506.903 172.521L506.949 172.438L507.334 171.705C507.576 171.259 507.81 170.805 508.037 170.352C508.047 170.341 508.052 170.328 508.052 170.314C508.287 169.853 508.521 169.384 508.74 168.916C508.748 168.908 508.748 168.893 508.755 168.886C509.035 168.304 509.307 167.722 509.571 167.125C509.639 166.989 509.7 166.853 509.76 166.717C510.01 166.142 510.259 165.56 510.501 164.978C510.75 164.381 510.992 163.777 511.227 163.172C511.461 162.567 511.695 161.955 511.914 161.351C512.33 160.194 512.721 159.035 513.086 157.874C513.102 157.807 513.123 157.742 513.146 157.677C513.335 157.058 513.516 156.446 513.698 155.826C513.811 155.425 513.917 155.032 514.023 154.632C514.098 154.344 514.174 154.057 514.242 153.77C514.28 153.657 514.302 153.551 514.333 153.438C514.431 153.052 514.522 152.674 514.612 152.289C514.628 152.228 514.643 152.16 514.658 152.1C514.839 151.321 515.013 150.535 515.172 149.757C515.255 149.364 515.33 148.971 515.406 148.578C515.55 147.792 515.693 147.006 515.814 146.22C515.874 145.85 515.927 145.479 515.98 145.109C516.033 144.776 516.079 144.444 516.124 144.119C516.184 143.696 516.237 143.28 516.283 142.857C516.479 141.187 516.623 139.524 516.713 137.853C516.744 137.355 516.766 136.856 516.789 136.349C516.812 135.768 516.827 135.193 516.834 134.611C516.842 134.128 516.849 133.636 516.849 133.153C516.849 131.694 516.812 130.243 516.736 128.784C516.615 126.449 516.396 124.124 516.079 121.808C513.371 102.018 503.631 83.8633 488.641 70.6623C473.65 57.4613 454.409 50.096 434.435 49.9126C414.462 49.7291 395.089 56.7399 379.858 69.6633C364.628 82.5867 354.557 100.56 351.486 120.297C351.41 120.796 351.335 121.302 351.267 121.808C351.017 123.622 350.831 125.444 350.707 127.273C350.67 127.779 350.639 128.278 350.617 128.784C349.947 141.599 352.255 154.396 357.359 166.17C362.464 177.943 370.227 188.375 380.039 196.645C381.868 198.187 383.742 199.638 385.662 200.998C385.669 201.006 385.677 201.006 385.685 201.014C386.327 201.467 386.969 201.913 387.619 202.351C388.655 203.031 389.698 203.697 390.748 204.331C390.831 204.377 390.915 204.43 390.998 204.475C391.905 205.019 392.819 205.541 393.734 206.047H393.741C397.145 207.919 400.679 209.545 404.315 210.914C414.982 214.928 426.359 216.713 437.743 216.159H437.765C451.052 215.517 463.989 211.688 475.486 204.997C477.156 204.029 478.804 202.994 480.414 201.89C480.814 201.618 481.222 201.339 481.615 201.059C482.099 200.719 482.583 200.364 483.066 200.008C483.074 200.008 483.074 200.001 483.081 200.001C483.117 199.971 483.155 199.943 483.195 199.918C483.52 199.668 483.852 199.419 484.17 199.177C484.253 199.117 484.336 199.056 484.419 198.988C484.441 198.973 484.461 198.955 484.48 198.935C484.668 198.799 484.85 198.648 485.039 198.504C485.228 198.361 485.409 198.21 485.598 198.059C485.63 198.038 485.66 198.016 485.689 197.99C485.9 197.817 486.112 197.65 486.324 197.477C486.543 197.303 486.754 197.121 486.958 196.947C487.17 196.774 487.374 196.6 487.586 196.418C487.767 196.267 487.956 196.109 488.138 195.942C488.198 195.897 488.251 195.844 488.311 195.791C488.335 195.769 488.36 195.748 488.387 195.731C488.636 195.519 488.878 195.3 489.12 195.081C489.181 195.028 489.233 194.975 489.294 194.922C489.664 194.589 490.035 194.257 490.397 193.909C490.48 193.834 490.571 193.75 490.654 193.675C490.737 193.599 490.813 193.524 490.896 193.448C491.002 193.342 491.115 193.244 491.221 193.138C491.493 192.881 491.758 192.617 492.03 192.352L492.922 193.108L493.247 193.38H493.254L493.352 193.471L493.708 193.766L498.983 198.225L499.096 198.323L499.187 198.391L499.784 198.897L500.978 199.91L502.172 200.915L502.346 201.059L507.901 205.745L508.672 206.395L514.03 210.914L541.767 234.321L542.735 235.137L580.697 267.167L590.432 275.382L594.052 278.435C594.82 279.085 595.709 279.578 596.668 279.884C597.627 280.191 598.637 280.305 599.64 280.221C600.643 280.137 601.62 279.855 602.514 279.393C603.408 278.931 604.203 278.298 604.852 277.528C605.396 276.89 605.827 276.164 606.129 275.382C606.678 273.995 606.808 272.477 606.503 271.017C606.198 269.557 605.472 268.218 604.414 267.167ZM385.488 91.9703C393.07 82.9852 403.04 76.3285 414.245 72.7691C425.449 69.2097 437.433 68.8928 448.81 71.8551C460.188 74.8174 470.495 80.938 478.541 89.5098C486.587 98.0817 492.045 108.755 494.282 120.297C494.38 120.803 494.471 121.302 494.554 121.808C494.864 123.615 495.091 125.444 495.227 127.273C495.265 127.779 495.302 128.278 495.325 128.784C495.393 129.918 495.423 131.059 495.423 132.193C495.428 139.069 494.288 145.899 492.052 152.402V152.41C489.554 159.701 485.717 166.463 480.738 172.347C480.633 172.468 480.527 172.597 480.414 172.717C479.416 173.896 478.365 175.03 477.285 176.111C477.277 176.118 477.269 176.134 477.262 176.141C476.892 176.511 476.514 176.889 476.136 177.237C475.365 177.985 474.579 178.696 473.778 179.376C472.576 180.426 471.344 181.411 470.082 182.331C469.659 182.641 469.236 182.943 468.805 183.245C468.382 183.548 467.951 183.835 467.52 184.122C466.658 184.696 465.782 185.248 464.897 185.77C464.459 186.034 464.006 186.291 463.56 186.541C463.114 186.797 462.66 187.039 462.207 187.274C461.753 187.516 461.3 187.75 460.839 187.976C459.924 188.438 459.002 188.868 458.065 189.269C457.597 189.48 457.128 189.677 456.659 189.858C456.365 189.979 456.077 190.1 455.783 190.206C455.668 190.259 455.549 190.305 455.428 190.342C455.269 190.41 455.11 190.471 454.951 190.523C454.9 190.547 454.847 190.567 454.793 190.584C454.468 190.712 454.15 190.826 453.818 190.939C453.342 191.113 452.865 191.272 452.382 191.423C451.898 191.582 451.422 191.733 450.938 191.869C450.454 192.02 449.963 192.156 449.479 192.284C448.988 192.421 448.505 192.549 448.013 192.662C447.492 192.798 446.97 192.919 446.441 193.033C445.98 193.139 445.527 193.229 445.066 193.312C444.635 193.403 444.197 193.479 443.766 193.554C443.161 193.66 442.557 193.758 441.945 193.841C441.612 193.894 441.287 193.94 440.954 193.97C440.811 193.993 440.675 194.008 440.539 194.023C440.116 194.083 439.692 194.129 439.277 194.166C439.163 194.174 439.058 194.189 438.952 194.197C438.491 194.242 438.022 194.28 437.561 194.318C436.571 194.386 435.588 194.431 434.598 194.454C434.1 194.461 433.593 194.469 433.094 194.469C432.596 194.469 432.097 194.461 431.598 194.446C431.598 194.446 431.598 194.454 431.59 194.446C431.583 194.454 431.583 194.454 431.575 194.446C431.574 194.447 431.573 194.448 431.572 194.448C431.57 194.449 431.569 194.449 431.568 194.449C431.566 194.449 431.565 194.449 431.564 194.448C431.562 194.448 431.561 194.447 431.56 194.446C431.536 194.454 431.509 194.454 431.485 194.446C431.129 194.446 430.774 194.431 430.426 194.408C430.17 194.401 429.905 194.393 429.64 194.37C429.285 194.355 428.93 194.333 428.575 194.302C428.462 194.302 428.348 194.287 428.235 194.28C428.182 194.278 428.129 194.273 428.076 194.265C427.713 194.234 427.343 194.204 426.98 194.166C426.799 194.151 426.61 194.136 426.428 194.113C425.877 194.053 425.325 193.985 424.781 193.909C424.161 193.834 423.541 193.743 422.929 193.63C422.642 193.592 422.362 193.539 422.083 193.486C421.712 193.426 421.342 193.358 420.972 193.282C420.586 193.207 420.201 193.131 419.815 193.04C419.505 192.972 419.188 192.904 418.878 192.829C418.727 192.798 418.576 192.761 418.432 192.723C417.639 192.534 416.853 192.33 416.074 192.103C415.583 191.967 415.092 191.824 414.608 191.672C413.943 191.468 413.285 191.249 412.628 191.015C412.371 190.932 412.122 190.841 411.865 190.743C411.608 190.66 411.358 190.561 411.101 190.463C410.867 190.38 410.633 190.289 410.406 190.198C410.028 190.055 409.658 189.904 409.287 189.753C408.524 189.443 407.776 189.118 407.028 188.77C406.604 188.566 406.181 188.37 405.765 188.166C404.126 187.372 402.511 186.49 400.921 185.52C400.528 185.286 400.135 185.037 399.742 184.787C399.251 184.485 398.775 184.167 398.299 183.85C398.034 183.669 397.777 183.495 397.52 183.314C397.044 182.981 396.575 182.641 396.114 182.301C395.872 182.127 395.63 181.945 395.396 181.764C394.557 181.129 393.734 180.464 392.925 179.784C392.539 179.459 392.154 179.126 391.776 178.786C391.617 178.65 391.459 178.507 391.3 178.363C391.119 178.197 390.937 178.038 390.763 177.864L390.748 177.849C390.484 177.615 390.219 177.365 389.962 177.116C389.562 176.738 389.169 176.353 388.791 175.96C388.398 175.574 388.02 175.174 387.65 174.781C387.272 174.388 386.909 173.987 386.554 173.579C386.191 173.179 385.836 172.77 385.488 172.355C385.148 171.962 384.815 171.554 384.498 171.153C383.727 170.201 382.991 169.231 382.291 168.243C381.966 167.79 381.656 167.336 381.354 166.875C381.029 166.407 380.719 165.931 380.424 165.454C380.114 164.978 379.82 164.495 379.533 164.003C379.525 163.987 379.515 163.971 379.502 163.958C378.935 162.998 378.391 162.031 377.885 161.048C377.363 160.051 376.872 159.043 376.411 158.025C376.177 157.519 375.95 157.005 375.739 156.491C375.3 155.455 374.892 154.42 374.514 153.37C374.325 152.863 374.151 152.357 373.977 151.843C373.972 151.809 373.962 151.776 373.947 151.745C373.6 150.702 373.282 149.651 373.003 148.593C372.995 148.578 372.995 148.563 372.987 148.548C372.844 148.026 372.708 147.505 372.587 146.976C372.466 146.515 372.36 146.054 372.262 145.585C372.149 145.064 372.035 144.542 371.937 144.013C371.884 143.741 371.831 143.469 371.786 143.197C371.74 142.97 371.703 142.736 371.665 142.509C371.627 142.282 371.589 142.048 371.551 141.814C371.476 141.353 371.408 140.892 371.347 140.431C371.272 139.887 371.211 139.342 371.151 138.791C371.083 138.133 371.023 137.476 370.97 136.811C370.932 136.365 370.909 135.911 370.887 135.458C370.864 135.042 370.841 134.626 370.834 134.211C370.826 134.189 370.826 134.165 370.834 134.143C370.833 134.142 370.832 134.141 370.831 134.139C370.831 134.138 370.83 134.137 370.83 134.135C370.83 134.134 370.831 134.132 370.831 134.131C370.832 134.13 370.833 134.129 370.834 134.128C370.826 134.12 370.826 134.12 370.834 134.112C370.833 134.111 370.832 134.11 370.831 134.109C370.831 134.108 370.83 134.106 370.83 134.105C370.83 134.104 370.831 134.102 370.831 134.101C370.832 134.1 370.833 134.098 370.834 134.097C370.826 133.931 370.818 133.765 370.818 133.599C370.803 133.107 370.796 132.616 370.796 132.125C370.796 131.679 370.803 131.241 370.811 130.795C370.826 130.175 370.849 129.555 370.879 128.935C370.879 128.799 370.894 128.671 370.902 128.535C370.909 128.399 370.917 128.27 370.924 128.134C370.939 127.847 370.962 127.56 370.992 127.273C370.991 127.22 370.994 127.167 371 127.114C371.023 126.789 371.053 126.464 371.083 126.139C371.143 125.489 371.219 124.832 371.302 124.182C371.347 123.857 371.385 123.532 371.438 123.207C371.468 122.98 371.506 122.746 371.544 122.511C371.574 122.277 371.612 122.043 371.657 121.808C371.71 121.499 371.763 121.181 371.824 120.864C371.854 120.675 371.892 120.486 371.93 120.297C372.073 119.541 372.232 118.785 372.405 118.03C372.579 117.266 372.776 116.51 372.987 115.755C373.191 114.991 373.418 114.228 373.66 113.465C373.773 113.079 373.894 112.701 374.03 112.323C374.28 111.56 374.544 110.804 374.839 110.056C374.975 109.686 375.119 109.308 375.277 108.938C375.58 108.189 375.897 107.441 376.222 106.708C376.388 106.338 376.555 105.967 376.736 105.597C377.076 104.864 377.431 104.131 377.817 103.413C378.187 102.68 378.588 101.962 378.996 101.251C379.404 100.541 379.827 99.8305 380.273 99.1276C380.477 98.78 380.704 98.4248 380.938 98.0847C381.392 97.3894 381.868 96.694 382.352 96.0139C383.327 94.6382 384.377 93.2854 385.488 91.9703ZM370.985 127.273C370.962 127.56 370.939 127.847 370.924 128.134C370.939 127.847 370.962 127.56 370.992 127.273C370.991 127.22 370.994 127.167 371 127.114C370.992 127.167 370.992 127.22 370.985 127.273ZM371.922 120.297C371.892 120.486 371.854 120.675 371.824 120.864C371.854 120.675 371.892 120.486 371.93 120.297H371.922ZM390.748 177.849V177.857C390.748 177.864 390.756 177.864 390.763 177.864L390.748 177.849Z" fill="#3F3D56"/>
<path opacity="0.3" d="M392.926 179.783C380.971 169.695 373.248 155.481 371.289 139.962C369.33 124.443 373.279 108.755 382.351 96.0128C381.16 97.2127 380.008 98.4693 378.896 99.7827C373.619 106.037 369.625 113.269 367.143 121.067C364.661 128.865 363.739 137.075 364.429 145.229C365.12 153.383 367.41 161.321 371.169 168.59C374.928 175.859 380.081 182.316 386.335 187.593C398.966 198.251 415.314 203.455 431.781 202.06C448.249 200.665 463.488 192.785 474.146 180.154C475.256 178.839 476.301 177.492 477.281 176.114C466.247 187.201 451.447 193.732 435.819 194.412C420.192 195.092 404.881 189.87 392.926 179.783Z" fill="black"/>
</g>
<defs>
<clipPath id="clip0_17_739">
<rect width="687" height="342.366" fill="white"/>
</clipPath>
</defs>
</svg>
