<svg width="432" height="355" viewBox="0 0 432 355" fill="none" xmlns="http://www.w3.org/2000/svg">
<path d="M284.34 2.06217C279.641 3.77064 280.679 10.7876 285.682 10.7876C290.685 10.7876 291.357 3.34353 286.475 2.06217C285.804 1.87912 284.828 1.87912 284.34 2.06217ZM287.268 4.80793C288.977 6.51641 287.329 9.38421 285.011 8.652C284.34 8.46895 283.607 7.73675 283.424 7.06556C282.692 4.74692 285.56 3.09946 287.268 4.80793Z" fill="black"/>
<path d="M33.9263 20.6112C31.7297 22.3197 31.7297 25.4926 33.9263 27.2011C34.8415 27.9333 36.0619 28.4824 36.672 28.4824C38.5025 28.4824 41.0652 25.8587 41.0652 23.9061C41.0652 21.9536 38.5025 19.3299 36.672 19.3299C36.0619 19.3299 34.8415 19.879 33.9263 20.6112ZM38.7466 22.9299C39.1737 24.3943 38.6246 25.8587 37.4042 26.2858C36.3669 26.7129 34.1703 25.0655 34.1703 23.9061C34.1703 21.8316 38.0754 20.9163 38.7466 22.9299Z" fill="black"/>
<path d="M216.306 32.4485C213.621 35.1332 214.963 39.0993 218.746 39.8316C221.492 40.3197 223.567 38.4892 223.567 35.4993C223.567 31.2892 219.235 29.4587 216.306 32.4485ZM221.492 34.5841C222.407 36.2926 220.15 38.5502 218.441 37.6349C217.282 37.0248 216.794 34.6451 217.648 33.7909C218.502 32.9366 220.882 33.4248 221.492 34.5841Z" fill="black"/>
<path d="M100.862 46.7873C98.4212 48.2517 97.6279 49.7161 97.6279 52.706C97.6889 56.489 100.435 58.9907 104.645 58.9907C107.635 58.9907 111.052 55.7568 111.052 52.95C111.052 50.2653 109.526 47.5805 107.391 46.4822C105.011 45.2619 103.241 45.3229 100.862 46.7873ZM106.475 50.1433C108.245 51.8517 108.367 52.706 107.025 54.5975C105.255 57.1602 100.679 55.6958 100.679 52.4619C100.679 50.8755 102.631 48.6178 104.035 48.6178C104.584 48.6178 105.682 49.289 106.475 50.1433Z" fill="black"/>
<path d="M200.32 58.5636C195.621 62.4077 150.652 99.6891 139.364 109.025C132.286 114.882 115.506 128.855 102.021 140.021C88.5366 151.187 77.1874 160.889 76.8823 161.499C75.3569 164.306 77.5535 167.601 80.9094 167.601C82.923 167.601 78.4078 171.262 164.076 100.238C185.37 82.6043 203.126 68.1433 203.431 68.1433C204.042 68.1433 210.387 73.3298 235.16 94.0145C240.835 98.7128 248.828 105.364 252.916 108.72C267.804 120.862 319.974 164.245 320.889 165.221C322.353 166.747 324.367 167.601 326.32 167.601C329.004 167.601 330.53 165.465 330.225 162.048C330.164 161.499 320.767 153.323 309.357 143.865L288.611 126.659V103.167V79.6755L290.442 79.0043C293.614 77.906 294.408 74.9772 292.211 72.1704L290.991 70.584H270.55C250.964 70.584 250.109 70.645 248.95 71.8043C246.57 74.184 247.669 78.1501 250.964 79.3094C251.879 79.6755 252.001 80.6518 252.001 87.6688C252.001 92.001 251.818 95.601 251.574 95.601C251.269 95.601 241.323 87.4247 229.425 77.5399C217.526 67.5942 206.97 58.9297 205.933 58.3196C203.553 56.7942 202.455 56.8552 200.32 58.5636ZM279.092 79.4925C279.947 79.7976 280.069 82.1772 280.069 99.384C280.069 113.296 279.886 118.848 279.398 118.665C279.031 118.543 274.76 115.187 269.94 111.16L261.153 103.899V91.8789C261.153 82.7874 261.337 79.7365 261.947 79.5535C263.045 79.0654 277.933 79.0654 279.092 79.4925Z" fill="#007E24"/>
<path d="M201.967 83.2146C201.479 83.3976 195.865 87.8519 189.459 93.0993C183.113 98.3468 170.177 108.964 160.781 116.652C115.628 153.689 96.5908 169.371 95.7976 170.347C94.7603 171.628 94.6993 176.571 94.6383 246.13C94.5773 284.815 94.5163 288.415 93.601 288.415C91.0383 288.415 87.4993 290.062 85.1807 292.442C82.2519 295.371 81.1536 298.3 81.1536 303.303V306.72H77.3095C68.462 306.72 62.2383 313.127 62.2383 322.279V324.903L57.9671 325.147C53.4519 325.391 51.8044 326.306 50.9502 329.174C50.6451 330.211 51.0112 330.944 52.4146 332.347L54.1841 334.178H210.509H366.774L368.238 332.652C372.021 328.93 368.787 325.025 362.015 325.025H358.171V321.791C358.171 316.666 357.133 314.042 353.899 310.869C350.665 307.757 348.042 306.72 343.099 306.72H339.865V303.181C339.804 297.567 336.754 292.137 332.238 289.818C331.262 289.269 328.394 288.72 325.832 288.476L321.255 288.11V275.296V262.483L332.543 262.177C345.845 261.811 347.187 261.323 349.872 255.954L351.459 252.781V228.374C351.459 213.181 351.215 203.052 350.787 201.588C350.482 200.306 349.323 198.354 348.347 197.194C344.93 193.289 344.564 193.289 307.526 193.289C285.987 193.289 273.418 193.472 271.832 193.899C268.659 194.754 265.12 198.354 264.265 201.649C263.777 203.357 263.594 212.083 263.716 229.411L263.899 254.611L265.608 257.174C268.537 261.628 270.428 262.177 282.815 262.177H293.493V275.296V288.415L198.794 288.293L104.035 288.11L103.852 231.547L103.73 174.923L106.048 173.276C107.269 172.299 110.625 169.615 113.493 167.174C116.36 164.794 133.811 150.455 152.238 135.262C170.726 120.13 189.215 104.937 193.364 101.52C204.347 92.4282 202.882 92.8553 208.496 97.4315C211.12 99.6282 223.811 110.062 236.747 120.618C249.682 131.235 265.181 143.988 271.221 148.93C277.262 153.933 286.781 161.743 292.394 166.32C301.547 173.764 302.584 174.801 302.645 176.51C302.645 177.547 302.828 179.682 303.011 181.269L303.438 184.137L307.404 183.832C310.638 183.649 311.493 183.344 311.859 182.428C312.225 181.33 311.981 174.008 311.432 171.445C311.187 170.164 307.648 167.174 263.594 131.052C238.76 110.733 221.493 96.5163 212.95 89.4993C204.896 82.8485 204.164 82.4214 201.967 83.2146ZM341.513 203.052C342.123 203.601 342.306 208.483 342.306 227.764C342.306 248.754 342.184 251.866 341.33 252.659C340.476 253.513 336.632 253.635 307.771 253.635C286.415 253.635 274.699 253.391 273.906 253.025C272.808 252.415 272.747 251.5 272.747 228.191C272.747 208.055 272.869 203.845 273.601 203.052C274.394 202.198 278.055 202.076 307.587 202.259C330.652 202.381 340.903 202.625 341.513 203.052ZM312.103 275.296V288.11H307.526H302.95L302.767 275.906C302.706 269.194 302.767 263.398 302.95 262.91C303.133 262.361 304.415 262.177 307.648 262.3L312.103 262.483V275.296ZM329.126 298.727C330.469 299.947 330.713 300.74 330.713 303.486V306.72L210.387 306.598L90.001 306.415L89.818 304.34C89.5129 301.411 90.7942 298.788 92.9908 297.811C94.5773 297.14 114.896 297.018 211.242 297.14L327.54 297.262L329.126 298.727ZM347.615 317.215C348.713 318.252 349.018 319.167 349.018 321.791V325.025H210.204H71.3908V321.974C71.3908 319.472 71.6959 318.557 72.9163 317.398L74.3807 315.872H210.265H346.211L347.615 317.215Z" fill="black"/>
<path d="M381.052 97.1267C380.198 97.9199 379.526 99.3233 379.526 100.178C379.526 101.886 381.967 104.754 383.431 104.754C385.384 104.754 387.337 103.533 388.008 101.825C388.618 100.3 388.618 99.6894 387.825 98.1639C386.299 95.1741 383.431 94.747 381.052 97.1267ZM386.116 99.9945C386.421 102.374 384.286 103.411 382.577 101.703C380.869 99.9945 381.906 97.8589 384.286 98.1639C385.567 98.286 385.994 98.7131 386.116 99.9945Z" fill="black"/>
<path d="M18.062 326.306C14.8891 328.808 16.6586 334.177 20.7467 334.177C24.7128 334.177 26.6044 328.808 23.4315 326.306C22.5162 325.574 21.3569 325.025 20.7467 325.025C20.1366 325.025 18.9773 325.574 18.062 326.306Z" fill="black"/>
<path d="M31.6688 326.794C29.5332 328.991 29.4112 330.7 31.4247 332.652C32.7671 334.056 33.3773 334.178 38.1366 334.178C44.1773 334.178 45.7637 333.262 45.7637 329.662C45.7637 326.306 43.6281 325.025 38.0146 325.025C33.8044 325.025 33.3162 325.147 31.6688 326.794Z" fill="black"/>
<path d="M377.391 325.757C374.34 327.405 373.791 330.333 376.171 332.652C377.452 333.995 378.184 334.178 382.455 334.178C386.421 334.178 387.581 333.933 388.923 332.896C390.998 331.249 391.059 328.564 388.984 326.55C387.703 325.208 386.971 325.025 383.065 325.025C380.625 325.025 378.062 325.391 377.391 325.757Z" fill="black"/>
<path d="M397.709 326.001C393.133 328.442 396.428 335.52 401.37 333.811C405.032 332.53 405.52 327.71 402.103 325.94C399.967 324.842 399.784 324.842 397.709 326.001Z" fill="black"/>
</svg>
