<svg width="41" height="43" viewBox="0 0 41 43" fill="none" xmlns="http://www.w3.org/2000/svg">
<path d="M4.7208 2.80065C3.78241 3.0605 2.91622 3.69572 2.35319 4.53304C1.70354 5.48586 1.57361 6.0922 1.61692 7.89677L1.66023 9.45593L5.29826 9.49924L8.95073 9.52811L8.9796 22.5644L9.02291 35.5862L9.35495 36.2647C9.78805 37.1309 10.6398 37.9827 11.5204 38.4158L12.199 38.7623L24.2824 38.8056L36.3659 38.8489L36.5247 38.5457C36.7412 38.1559 36.4814 37.8239 35.9761 37.8239C35.3553 37.8239 34.5469 37.5063 33.9983 37.0732C33.2764 36.4668 32.8722 35.6295 32.7856 34.4457C32.7134 33.695 32.6268 33.4063 32.4391 33.2908C32.2226 33.1609 32.1359 33.1897 31.9627 33.4207C31.4719 34.0559 32.0493 36.4957 32.8578 37.2608C33.0455 37.4341 33.2043 37.6362 33.2043 37.7084C33.2043 37.7806 28.469 37.8094 22.68 37.795L12.1557 37.7517L11.5349 37.3186C11.1884 37.0732 10.712 36.5968 10.4666 36.2503L10.0335 35.6295L9.96129 20.8175L9.88911 5.99114L9.55706 5.24044C9.36939 4.83621 9.05178 4.3598 8.86411 4.17213C8.67643 3.99889 8.51763 3.79678 8.51763 3.72459C8.51763 3.53691 28.8155 3.58022 29.4652 3.78234C30.2159 3.99889 31.0965 4.76403 31.4574 5.52917C31.7317 6.0922 31.7606 6.4098 31.7606 8.67635C31.7606 11.2894 31.8183 11.5492 32.3669 11.5492C32.7567 11.5492 32.8 11.0873 32.7423 8.34431C32.699 6.10663 32.6557 5.77459 32.3525 5.16825C31.9194 4.28762 31.1976 3.55135 30.2736 3.0605L29.5229 2.67072L17.4683 2.64185C7.89685 2.61297 5.26939 2.65628 4.7208 2.80065ZM6.9296 3.91227C8.32995 4.54748 8.95073 5.61579 8.95073 7.39149V8.51755H5.68805H2.41094L2.49756 7.30487C2.59861 5.93339 2.87291 5.24044 3.63805 4.5186C4.59087 3.59466 5.76023 3.37811 6.9296 3.91227Z" fill="black"/>
<path d="M14.2056 8.14215C13.989 8.31539 13.9601 8.40201 14.0901 8.61856C14.2489 8.86398 14.6531 8.87842 21.0918 8.87842C27.5594 8.87842 27.9348 8.86398 27.9781 8.61856C28.108 7.94004 28.108 7.94004 21.0918 7.94004C15.5626 7.94004 14.451 7.96891 14.2056 8.14215Z" fill="black"/>
<path d="M14.1336 13.3683C14.0036 13.5271 13.9892 13.657 14.1047 13.8303C14.2346 14.0468 14.8121 14.0757 20.2836 14.0757C25.755 14.0757 26.3325 14.0468 26.4624 13.8303C26.5779 13.657 26.5635 13.5271 26.4335 13.3683C26.2603 13.1662 25.5385 13.1373 20.2836 13.1373C15.0286 13.1373 14.3068 13.1662 14.1336 13.3683Z" fill="black"/>
<path d="M31.313 13.8014C31.0243 14.119 30.8943 14.1623 30.4612 14.0757C29.263 13.8303 28.7288 14.0468 28.2957 14.9563C28.0359 15.5338 27.9493 15.5915 27.5017 15.5915C26.7799 15.5915 26.1014 16.2267 26.0436 16.9774C26.0292 17.2806 26.0003 17.5838 26.0003 17.6415C25.9859 17.6993 25.7405 17.8725 25.4229 18.0313C24.5422 18.4788 24.369 19.1574 24.8454 20.2979C25.0042 20.7021 24.9898 20.7887 24.7155 21.1496C24.2246 21.7704 24.2968 22.4489 24.9031 23.0553C25.3795 23.5317 25.4084 23.5894 25.3218 24.3112C25.2352 24.9753 25.2785 25.1053 25.6105 25.5095C25.8415 25.7693 26.1736 25.9859 26.4767 26.0436C26.9676 26.1447 27.1408 26.3468 27.1408 26.881C27.1408 27.0398 27.3429 27.3574 27.5739 27.6028C27.9781 27.9926 28.0936 28.0359 28.6711 27.9637C29.1475 27.9204 29.3785 27.9493 29.494 28.1081C30.057 28.801 30.3746 29.0176 30.9088 29.0176C31.1975 29.0176 31.645 28.9021 31.876 28.7722C32.2802 28.5412 32.3236 28.5412 32.67 28.7722C32.8866 28.9021 33.3052 29.0176 33.6084 29.0176C34.157 29.0176 34.4746 28.8155 35.0376 28.1081C35.1531 27.9493 35.3841 27.9204 35.8605 27.9637C36.438 28.0359 36.5535 27.9926 36.9577 27.6028C37.1887 27.3574 37.3908 27.0398 37.3908 26.881C37.3908 26.3468 37.5641 26.1447 38.0549 26.0436C38.3581 25.9859 38.6901 25.7693 38.9211 25.5095C39.2531 25.1197 39.2964 24.9753 39.2098 24.3401C39.1376 23.676 39.1665 23.5894 39.6285 23.0697C40.2348 22.4056 40.2926 21.756 39.8162 21.1496C39.5419 20.7887 39.5274 20.7021 39.6862 20.2979C40.1482 19.1574 39.9894 18.4788 39.1232 18.0458C38.6468 17.8003 38.5746 17.6993 38.5024 17.0929C38.4158 16.2267 37.925 15.7215 37.0876 15.606C36.7556 15.5627 36.438 15.4183 36.3802 15.3028C36.3225 15.1873 36.1781 14.8986 36.0771 14.6676C35.7883 14.0612 35.1098 13.8158 34.3014 14.0324C33.6806 14.1912 33.6373 14.1912 33.2619 13.8158C32.7278 13.2817 31.8183 13.2672 31.313 13.8014ZM32.7711 14.6387C33.1898 15.1007 33.7817 15.2306 34.4313 15.0141C35.0521 14.8119 35.2975 14.9563 35.413 15.5915C35.5285 16.1112 36.0771 16.4866 36.8711 16.6021C37.463 16.6743 37.463 16.6743 37.5496 17.3817C37.6218 18.0891 37.9683 18.5222 38.7767 18.9986C39.0222 19.1429 39.0366 19.2007 38.8489 19.6482C38.4591 20.6299 38.5024 20.9764 39.0655 21.756C39.282 22.0591 39.2676 22.1024 38.8489 22.4778C38.2714 23.0119 38.0549 23.6472 38.257 24.1669C38.4447 24.6866 38.2281 25.1197 37.7373 25.1197C37.2753 25.1197 36.5246 25.8415 36.5246 26.3035C36.5246 26.9098 36.3225 27.0542 35.5141 27.0109C34.7922 26.982 34.7345 27.0109 34.2003 27.5884L33.6373 28.2091L33.0743 27.8915C32.3813 27.5017 32.1503 27.5017 31.4574 27.8915L30.8943 28.2091L30.3457 27.6028C29.8116 27.0253 29.7394 26.9965 28.9887 26.9965C28.1514 26.9965 28.007 26.881 28.007 26.2746C28.007 25.8415 27.4007 25.2496 26.8521 25.1341L26.3468 25.0331V24.0514C26.3468 23.113 26.3179 23.0408 25.8848 22.6799C25.3362 22.2179 25.2929 21.9436 25.7116 21.3662C26.0436 20.9331 26.0292 20.5433 25.6827 19.6482C25.495 19.2007 25.5095 19.1429 25.7549 18.9986C26.5633 18.5222 26.9098 18.0891 26.982 17.3817C27.0686 16.6743 27.0686 16.6743 27.6605 16.6021C28.4545 16.4866 29.0031 16.1112 29.1186 15.5915C29.2341 14.9563 29.4795 14.8119 30.1003 15.0141C30.75 15.2306 31.3419 15.1007 31.7605 14.6387C31.9482 14.451 32.1792 14.2922 32.2658 14.2922C32.3524 14.2922 32.5834 14.451 32.7711 14.6387Z" fill="#007E24"/>
<path d="M30.6489 15.938C29.0898 16.4432 27.5595 17.858 26.982 19.3161C26.5056 20.4999 26.52 22.3911 26.9964 23.6038C27.4584 24.802 28.9021 26.2457 30.1003 26.7077C31.313 27.1985 33.2042 27.1985 34.4024 26.7221C35.5718 26.2601 36.8278 25.0619 37.4197 23.8492C37.8672 22.9542 37.8961 22.7809 37.8961 21.4383C37.8961 20.1679 37.8528 19.8936 37.5063 19.1573C36.9722 18.0168 35.8172 16.8475 34.6767 16.2844C33.8827 15.8947 33.5651 15.8225 32.4968 15.7792C31.7172 15.7503 31.0243 15.808 30.6489 15.938ZM34.4746 17.2517C35.3408 17.7281 36.0626 18.4644 36.5535 19.3739C36.8422 19.908 36.8855 20.2112 36.8855 21.4383C36.8855 22.7665 36.8567 22.9397 36.4669 23.6471C35.976 24.5133 35.2398 25.2496 34.3302 25.726C33.7961 26.0147 33.4929 26.058 32.2658 26.058C31.0387 26.058 30.7355 26.0147 30.2014 25.726C29.2919 25.2496 28.5556 24.5133 28.0648 23.6471C27.675 22.9397 27.6461 22.7665 27.6461 21.4383C27.6461 20.2112 27.6894 19.908 27.9781 19.3883C28.9598 17.526 30.389 16.7175 32.4824 16.7897C33.5074 16.8186 33.8394 16.9052 34.4746 17.2517Z" fill="#007E24"/>
<path d="M33.3199 20.8897L31.7607 22.4489L30.9234 21.6116C30.0428 20.7309 29.6963 20.6154 29.4509 21.0774C29.3065 21.3373 29.4075 21.5105 30.2737 22.3912C30.8079 22.9542 31.3709 23.4739 31.5153 23.5605C31.7463 23.676 32.0783 23.4161 33.6519 21.8426C34.9945 20.5144 35.5142 19.9225 35.4854 19.7059C35.3843 19.0419 34.879 19.3162 33.3199 20.8897Z" fill="#007E24"/>
<path d="M14.1336 18.5655C14.0036 18.7243 13.9892 18.8542 14.1047 19.0275C14.2346 19.244 14.6966 19.2729 18.2336 19.3162C21.6983 19.3451 22.2325 19.3162 22.4346 19.1141C22.6078 18.9408 22.6223 18.8254 22.5212 18.6088C22.3769 18.3489 22.1747 18.3345 18.349 18.3345C14.8554 18.3345 14.3068 18.3634 14.1336 18.5655Z" fill="black"/>
<path d="M14.0614 23.7483C14.0036 23.8638 14.0036 24.0659 14.0614 24.1814C14.1336 24.3691 14.6677 24.3979 17.7427 24.3979C20.0093 24.3979 21.3807 24.3402 21.4385 24.2536C21.4818 24.167 21.4818 23.9793 21.4385 23.8205C21.3519 23.5462 21.2075 23.5318 17.7427 23.5318C14.6677 23.5318 14.1336 23.5606 14.0614 23.7483Z" fill="black"/>
<path d="M28.6856 28.8155C28.6279 28.8732 28.5845 29.9127 28.5845 31.1109C28.5845 34.0127 28.5412 33.9838 30.5912 32.6412C31.4574 32.0782 32.2226 31.6162 32.2803 31.6162C32.3525 31.6162 33.0888 32.0782 33.9261 32.6268C34.9511 33.3053 35.543 33.6084 35.7162 33.5507C35.9328 33.4641 35.9472 33.2042 35.9183 31.1253L35.875 28.801H35.5141H35.1532L35.1099 30.4179C35.081 31.3996 35.0088 32.0493 34.9222 32.0493C34.85 32.0493 34.3014 31.7172 33.7095 31.3275C33.1032 30.9232 32.5402 30.5623 32.4247 30.519C32.3236 30.4757 31.6162 30.8366 30.88 31.313L29.5229 32.1937L29.4507 30.4901C29.3786 28.931 29.3497 28.801 29.0898 28.7577C28.9166 28.7289 28.7433 28.7577 28.6856 28.8155Z" fill="#007E24"/>
<path d="M24.1815 31.8759C24.0948 31.9481 23.5751 32.2657 23.0121 32.5689L21.9871 33.1175L21.2508 32.5112C20.8322 32.1647 20.3846 31.9048 20.1825 31.9048C19.9804 31.9048 19.4607 32.1647 19.0132 32.4823C18.5801 32.7999 18.1614 33.0597 18.0892 33.0597C18.0315 33.0597 17.8149 32.9298 17.6128 32.771C17.0931 32.3668 16.6311 32.4101 15.736 32.9587C14.3501 33.7671 14.6966 34.5756 16.097 33.8393L16.8477 33.4351L17.3529 33.7527C18.0603 34.2002 18.3058 34.1569 19.273 33.464C19.836 33.0742 20.1681 32.9154 20.2836 33.002C20.3846 33.0742 20.7311 33.3485 21.0776 33.5939C21.4241 33.8538 21.8283 34.0703 22.0015 34.0703C22.1748 34.0559 22.9255 33.7094 23.6762 33.2907C24.8167 32.6555 25.0477 32.4678 25.0477 32.1791C25.0477 31.9193 24.961 31.8182 24.6867 31.7893C24.4846 31.7604 24.2536 31.8038 24.1815 31.8759Z" fill="black"/>
</svg>
