<svg width="197" height="27" viewBox="0 0 197 27" fill="none" xmlns="http://www.w3.org/2000/svg">
<g clip-path="url(#clip0_17_500)">
<path d="M13.11 0.225454C14.2637 -1.77455 16.5481 -2.76679 18.7486 -2.93734C22.7369 -3.24741 26.771 -1.30168 29.1777 1.91538C28.9409 0.675066 28.6811 -0.619507 29.002 -1.86757C29.1472 -2.62726 29.957 -3.14664 30.6982 -2.96059C31.5539 -2.7978 32.104 -2.02261 32.4784 -1.28617C33.1813 0.132431 33.6015 1.66731 34.0752 3.17894C34.6482 1.94638 35.206 0.465764 36.5583 -0.0458639C37.7884 -0.441213 39.0033 0.434757 39.7062 1.396C40.8675 3.07042 41.2725 5.14793 41.4558 7.14793C42.472 6.06266 43.5493 4.72933 45.1385 4.62855C46.5902 4.48902 48.103 5.64406 48.1641 7.16344C48.2329 8.72933 47.4077 10.1169 46.6819 11.427C51.3349 10.0006 56.2706 10.1789 61.0076 11.0704C60.5033 9.84561 59.7851 8.59755 59.8921 7.22545C59.9838 6.18669 61.2827 5.69057 62.0925 6.27972C63.0552 6.92313 63.5519 8.03165 64.1707 8.97739C64.6903 6.8146 65.6301 4.68282 67.3186 3.2022C69.8476 0.713826 73.8511 0.132431 77.0601 1.48127C79.1612 2.34173 80.8115 4.01615 82.0187 5.92313C82.7675 4.70607 83.5697 3.396 84.8839 2.72933C86.2286 2.01615 88.1157 2.45801 88.9103 3.79135C89.6897 5.03941 89.6056 6.57429 89.5751 7.9929C90.9274 7.44251 92.4478 6.98514 93.8842 7.52778C95.122 7.88437 95.9854 8.89987 96.7188 9.91538C97.8802 9.55879 99.0644 9.19445 100.287 9.20995C101.525 9.22545 102.724 9.57429 103.924 9.86886C102.625 8.07041 100.906 6.37274 100.516 4.10142C100.21 2.84561 101.792 2.28747 102.694 2.85336C104.13 3.74483 105.131 5.18669 106.17 6.50452C105.712 4.32623 105.666 1.86111 106.965 -0.0536158C108.172 -1.95284 110.433 -2.7823 112.565 -2.95284C116.446 -3.2009 120.282 -1.34044 122.727 1.69832C122.666 0.341733 122.299 -1.12338 122.91 -2.3947C123.567 -3.40245 125.049 -3.0071 125.63 -2.12338C126.761 -0.541988 127.173 1.427 127.785 3.25646C128.266 2.08592 128.747 0.752586 129.909 0.101423C130.978 -0.526484 132.293 0.140183 133.057 0.96964C134.531 2.64406 134.875 4.96189 135.188 7.10142C136.105 6.11693 137.052 4.9929 138.42 4.69832C139.879 4.35724 141.591 5.30297 141.82 6.86886C142.057 8.52003 141.148 10.0084 140.422 11.4037C142.485 10.8146 144.624 10.5355 146.763 10.396C149.399 10.2487 152.012 10.6906 154.618 11.0627C154.19 9.89987 153.602 8.74483 153.571 7.48127C153.518 6.43476 154.778 5.67507 155.657 6.22545C156.688 6.87662 157.231 8.0239 157.873 9.0239C158.346 6.56654 159.599 4.24096 161.578 2.70607C164.321 0.481268 168.37 0.178942 171.457 1.83786C173.237 2.74483 174.597 4.27972 175.728 5.90762C176.469 4.65956 177.302 3.31848 178.67 2.70607C180.037 2.01615 181.902 2.52778 182.658 3.89987C183.369 5.14018 183.323 6.62855 183.292 8.0239C184.522 7.52778 185.867 7.04716 187.204 7.40375C189.122 7.78359 190.795 9.66731 190.566 11.7138C190.467 13.241 189.466 14.4658 188.511 15.5665C192.69 16.2797 195.899 19.8921 196.999 23.9309C186.348 24.0549 175.698 23.9464 165.047 23.9851C111.488 23.9851 57.9209 23.9851 4.35407 23.9851C3.14688 24.2099 2.62734 22.9929 2.19948 22.0937C1.19094 19.8534 0.0143223 17.5665 -0.00095849 15.0549C-0.0544413 12.8224 1.34375 10.6518 3.38374 9.8146C5.70642 8.86887 8.34236 9.2022 10.6039 10.1557C9.28976 8.74483 8.05202 7.2022 7.21922 5.44251C6.79135 4.63631 6.89068 3.69832 6.99765 2.8301C7.7464 2.76809 8.59449 2.53553 9.26684 3.01615C10.5199 3.86111 11.368 5.16344 12.3765 6.27972C12.1091 4.25646 11.9868 2.03941 13.1023 0.233206L13.11 0.225454Z" fill="#92E3A9"/>
</g>
<defs>
<clipPath id="clip0_17_500">
<rect width="197" height="27" fill="white"/>
</clipPath>
</defs>
</svg>
