<svg width="39" height="39" viewBox="0 0 39 39" fill="none" xmlns="http://www.w3.org/2000/svg">
<path d="M29.1571 14.5408L28.8742 14.2187C28.2336 13.489 27.581 12.7661 26.896 12.0807L26.383 11.603L25.9734 11.2217L26.3983 10.8575L26.6489 10.6427L29.1571 14.5408ZM29.1571 14.5408L29.5187 14.3104M29.1571 14.5408L29.5187 14.3104M29.5187 14.3104C31.9646 12.7515 34.8157 11.9571 37.7083 12.0226V14.6031M29.5187 14.3104L37.7083 14.6031M37.7083 14.6031C35.429 14.5539 33.1766 15.1352 31.2017 16.2877L30.7283 16.564L31.0467 17.0101C32.7468 19.392 33.9804 21.7781 34.4815 23.8578C34.9813 25.9322 34.7345 27.6009 33.6388 28.7159L33.2783 29.025L33.2432 29.055L33.2142 29.091C33.0702 29.2699 32.8812 29.407 32.6666 29.4885L8.09422 37.6375L8.09099 37.6386C7.56456 37.8172 7.01311 37.911 6.45726 37.9167C5.60387 37.917 4.76266 37.7142 4.00318 37.325C3.24301 36.9354 2.58659 36.3703 2.0883 35.6766C1.59001 34.9828 1.26417 34.1803 1.13779 33.3355C1.01141 32.4908 1.08812 31.628 1.36155 30.8188L1.36174 30.8183L9.26256 7.34871L9.26299 7.34744L9.58506 6.39913L9.61162 6.32092V6.23834V6.17511C9.76577 5.87337 9.96465 5.59641 10.2017 5.35371C11.4462 4.11103 13.4006 3.94597 15.8393 4.71311C18.2641 5.47585 21.0262 7.12417 23.6872 9.26189L24.0368 9.54273L24.3539 9.22564C24.3894 9.19012 24.4259 9.15989 24.4829 9.11255C24.4937 9.10361 24.5052 9.09406 24.5175 9.08375C24.5851 9.02743 24.6728 8.95273 24.759 8.85638C25.6378 7.97336 26.1232 6.97455 25.6968 5.9711L25.6849 5.94308L25.6697 5.91672C25.3065 5.28752 24.782 4.7666 24.1504 4.40771C23.6664 4.13274 23.133 3.96051 22.5833 3.89954V1.29683C23.6704 1.34947 24.7298 1.67426 25.6627 2.24481C26.728 2.89633 27.5832 3.84061 28.1263 4.96474C28.4867 5.94518 28.5402 7.01233 28.2793 8.02418C28.0165 9.04314 27.4475 9.95699 26.6491 10.6425L37.7083 14.6031ZM7.36955 35.1826L7.37056 35.1823L14.5731 32.7814L15.653 32.4215L14.6573 31.8697C11.4675 30.1022 8.86512 27.4392 7.17151 24.2095L6.62478 23.1668L6.25413 24.2843L3.81746 31.6301L3.81736 31.6304C3.65363 32.1251 3.63061 32.6555 3.75086 33.1625C3.87112 33.6695 4.12992 34.1331 4.49837 34.5016C4.86682 34.87 5.33043 35.1288 5.83742 35.2491C6.34443 35.3694 6.87488 35.3463 7.36955 35.1826ZM19.6261 31.0167L19.7724 31.0554L19.9155 31.0066L25.2726 29.1791L25.1521 28.4522L25.2503 28.2612C24.6404 27.9475 24.0089 27.5795 23.3704 27.1894L22.8202 26.8344L22.8195 26.834C22.4349 26.5868 22.0632 26.3193 21.6727 26.0383C21.5694 25.9639 21.4648 25.8887 21.3583 25.8126L20.7072 25.3198L19.3204 24.1998L18.7604 23.7246C18.4688 23.3986 18.1871 23.122 17.9014 22.8472C17.8483 22.7962 17.7952 22.7453 17.7419 22.6942C17.4984 22.461 17.25 22.2231 16.9768 21.9427C16.3002 21.2483 15.6639 20.5765 15.0647 19.8895L14.5491 19.2672L14.5492 19.2672L14.5447 19.262C14.1748 18.8278 13.6693 18.1835 13.433 17.8823C13.4112 17.8545 13.3917 17.8297 13.3748 17.8082C13.2699 17.6747 13.2276 17.6129 13.1543 17.5058C13.0929 17.416 13.0098 17.2945 12.8499 17.0724C12.5294 16.6273 12.1211 16.0413 11.9464 15.7793C11.8673 15.6607 11.8208 15.5795 11.7606 15.472C11.7552 15.4623 11.7497 15.4525 11.7441 15.4425C11.6846 15.336 11.6111 15.2046 11.4916 15.0084C11.2383 14.5921 10.999 14.1985 10.813 13.8264L10.7991 13.7986L10.7818 13.7726L10.6743 13.6114L10.1072 12.7608L9.78394 13.7306L7.99227 19.1056L7.9449 19.2478L7.98348 19.3925C8.72757 22.1842 10.1963 24.7297 12.2409 26.771C14.2854 28.8123 16.8332 30.277 19.6261 31.0167ZM31.4227 27.0379H31.6166L31.7612 26.9014C31.9556 26.7178 32.0479 26.4531 32.0921 26.2055C32.1388 25.9432 32.1447 25.6263 32.1079 25.2626C32.0343 24.5337 31.784 23.5611 31.269 22.3472L31.2656 22.3393L31.2619 22.3314C30.8322 21.4088 30.3352 20.519 29.7749 19.6693L29.0657 18.594L28.8636 19.8662C28.7751 20.4234 28.7554 20.9888 28.8046 21.5496L26.2022 22.0571C26.023 20.2395 26.3989 18.4057 27.2867 16.8003L27.455 16.4959L27.2281 16.2322C26.5595 15.4552 25.8521 14.6751 25.0885 13.9115L25.0886 13.9114L25.0809 13.904L24.2209 13.0798L23.9425 12.813L23.6137 13.0145C22.2097 13.875 20.6331 14.4098 18.9999 14.5827V11.9865C19.7266 11.8803 20.4357 11.673 21.1065 11.3703L21.8721 11.0248L21.2033 10.5165C18.9305 8.78915 16.9263 7.7479 15.3877 7.22103C14.6202 6.95825 13.9529 6.81801 13.4167 6.79208C13.1487 6.77912 12.8989 6.79397 12.6793 6.84471C12.4636 6.89454 12.2424 6.98715 12.0726 7.15687L11.9928 7.23675L11.955 7.34321L11.7579 7.89863L11.7394 7.95084L11.7327 8.00584C11.7125 8.17328 11.7108 8.3424 11.7277 8.51012C11.72 8.67014 11.7207 8.83047 11.7299 8.99043L11.732 9.02539L11.7388 9.05973L11.7394 9.0628C11.775 9.24084 11.8128 9.42974 11.8695 9.65627C11.8816 9.70481 11.8928 9.75404 11.9044 9.80501C11.9341 9.93548 11.9665 10.0774 12.0235 10.2485C12.0716 10.3928 12.1445 10.5694 12.2088 10.7254C12.2412 10.804 12.2715 10.8774 12.2953 10.9387C12.3707 11.1703 12.4592 11.3974 12.5603 11.6189C12.6487 11.8239 12.7641 12.0299 12.8611 12.2031C12.8947 12.2631 12.9261 12.3192 12.9535 12.37C12.991 12.4396 13.0341 12.5243 13.0808 12.6159C13.1593 12.7699 13.2476 12.9433 13.3358 13.0977L13.34 13.105L13.3444 13.1121L13.864 13.9542L13.8644 13.9548L14.3302 14.7073L14.3347 14.7145L14.3393 14.7215C14.4531 14.8922 14.5751 15.061 14.6934 15.2239L14.7189 15.259C14.8299 15.4119 14.9377 15.5603 15.0415 15.7119L15.0413 15.712L15.0493 15.7231L15.5689 16.4397L15.5783 16.4528L15.5886 16.4652L16.5382 17.6118L16.5383 17.6119L17.0579 18.239L17.0625 18.2446L17.0673 18.2501C17.5974 18.8533 18.1796 19.4534 18.7914 20.0652C21.7183 23.001 24.4943 24.9121 26.7132 26.0055C27.8214 26.5516 28.8017 26.8991 29.6004 27.0645C29.9996 27.1471 30.3644 27.1866 30.6835 27.178C30.9448 27.171 31.1997 27.1311 31.4227 27.0379Z" fill="white" stroke="#363736"/>
</svg>
