<svg width="55" height="51" viewBox="0 0 55 51" fill="none" xmlns="http://www.w3.org/2000/svg">
<path d="M6.98651 0.607908C4.38515 1.31399 2.37839 2.80048 1.11487 5.03022C0.148649 6.70252 0 7.33428 0 9.74983C0 12.2769 0.111487 12.7971 1.22636 14.5809C4.12501 19.412 10.5913 20.5641 14.7906 16.9593C17.2061 14.9154 18.0237 13.0944 18.0237 9.74983C18.0237 7.59442 17.8379 6.6282 17.2061 5.439C15.1622 1.57413 10.9257 -0.395473 6.98651 0.607908ZM11.0744 3.61805C13.8615 4.80725 15.2365 6.81401 15.2365 9.74983C15.2365 12.0167 14.6048 13.3174 12.8582 14.8782C9.77368 17.5539 5.05407 16.4019 3.30744 12.5742C2.45271 10.716 2.41555 9.04375 3.15879 7.25996C3.9392 5.40184 4.71961 4.58427 6.5034 3.7667C8.32435 2.91197 9.29057 2.91197 11.0744 3.61805Z" fill="white"/>
<path d="M7.95264 6.8513C7.54385 7.52023 7.43237 11.1993 7.80399 12.1655C8.17561 13.1689 9.21616 13.3919 9.9594 12.6486C10.554 12.054 10.554 7.4459 9.9594 6.8513C9.40197 6.29387 8.2871 6.29387 7.95264 6.8513Z" fill="white"/>
<path d="M21.331 6.96265C21.1824 7.52009 21.2567 8.11468 21.4425 8.30049C21.6283 8.4863 23.5979 8.59779 25.8648 8.56063L29.9155 8.44914V7.33427V6.21941L25.7533 6.10792L21.5912 5.99643L21.331 6.96265Z" fill="white"/>
<path d="M45.0777 8.93212C44.6317 9.08076 42.6621 10.7531 40.6925 12.6483C37.4222 15.9186 37.1621 16.2531 37.1621 17.6281C37.1621 18.7801 37.4222 19.3376 38.277 20.2294C39.2432 21.1585 39.652 21.3072 40.8783 21.1957L42.3648 21.047V32.1214V43.1957L43.4054 44.3478C44.1858 45.2025 44.7804 45.4998 45.7838 45.5369C47.3446 45.5741 48.9426 44.6451 49.4257 43.3444C49.6486 42.8241 49.7973 37.6585 49.7973 31.8241V21.27H51.4324C52.8074 21.27 53.2162 21.0842 54.0338 20.118C54.6655 19.3747 55 18.5571 55 17.6652C55 16.5132 54.5912 15.9186 51.7669 12.9828C49.0912 10.27 46.6385 8.44901 46.0067 8.67198C45.9324 8.70914 45.5236 8.82063 45.0777 8.93212ZM49.3513 14.6923C52.1013 17.4423 52.3615 17.8511 51.8412 18.297C51.3209 18.7058 51.098 18.6315 50.0574 17.6281C49.3885 16.9592 48.5709 16.4389 48.2736 16.4389C46.8986 16.4389 46.8243 17.0335 46.8243 29.5572V41.7464L46.0067 41.6349L45.152 41.5234L44.9662 29.0741L44.7804 16.6247L43.8885 16.5132C43.2939 16.4017 42.625 16.7734 41.8074 17.5538C40.6554 18.6686 39.7635 18.7801 39.7635 17.8139C39.7635 17.2936 45.375 11.6078 45.8952 11.6078C46.1182 11.6078 47.679 12.9828 49.3513 14.6923Z" fill="white"/>
<path d="M21.8515 10.9018C21.0711 11.3477 20.9968 12.3883 21.6285 13.02C22.2603 13.6518 35.3414 13.6518 35.9732 13.02C36.5678 12.4254 36.5306 11.7937 35.8245 11.0876C35.3414 10.6045 34.1894 10.493 28.8752 10.493C25.2333 10.493 22.186 10.6788 21.8515 10.9018Z" fill="white"/>
<path d="M13.1926 22.4597C11.8548 22.9428 10.1453 24.4293 9.43922 25.8043C9.14192 26.3617 8.91895 27.6252 8.91895 28.5915C8.95611 34.2773 15.4595 37.0645 19.8446 33.1996C20.9967 32.159 21.6656 30.4867 21.6656 28.4428C21.6656 24.0205 17.3919 21.0103 13.1926 22.4597ZM16.723 25.1725C19.1386 26.436 19.6588 29.0002 17.9494 30.9327C17.0946 31.8989 16.6115 32.0847 15.2737 32.1219C13.8615 32.1219 13.4527 31.9732 12.5608 30.9698C11.2973 29.5205 11.1858 27.7367 12.3007 26.3246C13.6386 24.6522 15.0136 24.2806 16.723 25.1725Z" fill="white"/>
<path d="M26.088 25.0609C25.8279 25.321 25.6421 25.7669 25.6421 26.1014C25.6421 27.2534 26.4968 27.5879 29.4326 27.5879C31.9225 27.5879 32.3685 27.4764 32.7029 26.8446C33.0002 26.3244 33.0002 25.8784 32.7029 25.3582C32.3685 24.7264 31.9225 24.6149 29.4326 24.6149C27.686 24.6149 26.3482 24.8007 26.088 25.0609Z" fill="white"/>
<path d="M26.3105 29.1117C25.5301 29.5576 25.4558 30.5982 26.0875 31.2299C26.5706 31.713 35.4524 31.8988 36.5673 31.4529C37.3848 31.1184 37.3105 29.5576 36.4558 29.0745C35.5267 28.5914 27.1652 28.5914 26.3105 29.1117Z" fill="white"/>
<path d="M12.2266 38.8479C11.5577 39.2939 10.5914 40.2601 10.1083 40.9662C8.91914 42.75 9.03063 46.5034 10.3685 48.3615C11.409 49.8108 13.7502 51 15.6083 51C17.132 51 19.5104 49.7365 20.5138 48.3615C22.0746 46.2804 22.1489 42.9358 20.6996 40.7061C18.9158 38.0304 14.7908 37.1385 12.2266 38.8479ZM17.8752 42.4155C19.6962 44.2365 18.9901 47.2094 16.6117 47.9899C14.2333 48.7703 12.0779 47.1723 12.0779 44.6081C12.0779 41.5608 15.6455 40.2229 17.8752 42.4155Z" fill="white"/>
<path d="M26.0877 41.0402C25.4188 41.7091 25.5675 42.7496 26.3479 43.1956C27.5371 43.7902 31.8107 43.6787 32.4797 42.9726C33.1857 42.3037 33.1857 42.2293 32.7026 41.3003C32.3682 40.7057 31.8851 40.5942 29.4324 40.5942C27.6857 40.5942 26.3479 40.78 26.0877 41.0402Z" fill="white"/>
<path d="M26.088 45.1284C25.5306 45.6859 25.5306 46.6521 26.088 47.2095C26.5711 47.6926 35.4529 47.8784 36.5678 47.4325C37.2738 47.1724 37.3482 45.7602 36.7164 45.1284C36.0846 44.4967 26.7198 44.4967 26.088 45.1284Z" fill="white"/>
</svg>
