<svg width="185" height="141" viewBox="0 0 185 141" fill="none" xmlns="http://www.w3.org/2000/svg">
<g clip-path="url(#clip0_17_859)">
<path d="M74.0275 29.189H73.3527V10.7006C73.3527 9.29538 73.0759 7.90392 72.5381 6.60566C72.0004 5.3074 71.2122 4.12778 70.2185 3.13414C69.2249 2.14049 68.0453 1.35229 66.747 0.814538C65.4488 0.276782 64.0573 1.19061e-06 62.6521 0H23.4819C20.6439 -5.41015e-06 17.9221 1.12737 15.9154 3.13411C13.9086 5.14086 12.7813 7.86259 12.7813 10.7006V112.129C12.7812 113.535 13.058 114.926 13.5958 116.224C14.1335 117.523 14.9217 118.702 15.9154 119.696C16.909 120.69 18.0886 121.478 19.3869 122.015C20.6851 122.553 22.0766 122.83 23.4818 122.83H62.652C65.49 122.83 68.2117 121.703 70.2185 119.696C72.2253 117.689 73.3526 114.967 73.3526 112.129V42.3494H74.0275V29.189Z" fill="#3F3D56"/>
<path d="M63.0838 2.78394H57.9708C58.2059 3.36041 58.2957 3.98586 58.2322 4.60519C58.1686 5.22452 57.9538 5.81873 57.6065 6.33546C57.2592 6.8522 56.7902 7.27559 56.2408 7.56837C55.6913 7.86114 55.0783 8.01429 54.4557 8.01434H32.0156C31.393 8.01429 30.78 7.86114 30.2306 7.56837C29.6811 7.2756 29.2121 6.8522 28.8648 6.33547C28.5176 5.81873 28.3027 5.22453 28.2392 4.6052C28.1756 3.98586 28.2654 3.36041 28.5005 2.78394H23.725C22.6756 2.78393 21.6364 2.99063 20.6669 3.39222C19.6974 3.79381 18.8165 4.38243 18.0744 5.12446C17.3324 5.8665 16.7438 6.74743 16.3422 7.71696C15.9406 8.68648 15.7339 9.72561 15.7339 10.775V112.055C15.7339 113.104 15.9406 114.144 16.3422 115.113C16.7438 116.083 17.3324 116.964 18.0744 117.706C18.8165 118.448 19.6974 119.036 20.6669 119.438C21.6364 119.839 22.6756 120.046 23.725 120.046H63.0838C64.1332 120.046 65.1723 119.839 66.1419 119.438C67.1114 119.036 67.9923 118.448 68.7344 117.706C69.4764 116.964 70.065 116.083 70.4666 115.113C70.8682 114.144 71.0749 113.104 71.0749 112.055V10.775C71.0749 9.72561 70.8682 8.68648 70.4666 7.71696C70.065 6.74743 69.4764 5.8665 68.7344 5.12446C67.9923 4.38243 67.1114 3.79381 66.1419 3.39222C65.1723 2.99063 64.1332 2.78393 63.0838 2.78394Z" fill="white"/>
<path d="M86.5826 122.848H0.226656C0.166543 122.848 0.108892 122.824 0.0663858 122.781C0.0238796 122.739 0 122.681 0 122.621C0 122.561 0.0238796 122.503 0.0663858 122.461C0.108892 122.418 0.166543 122.394 0.226656 122.394H86.5826C86.6427 122.394 86.7003 122.418 86.7428 122.461C86.7853 122.503 86.8092 122.561 86.8092 122.621C86.8092 122.681 86.7853 122.739 86.7428 122.781C86.7003 122.824 86.6427 122.848 86.5826 122.848Z" fill="#CBCBCB"/>
<path d="M43.4044 78.3504C53.9752 78.3504 62.5446 69.781 62.5446 59.2102C62.5446 48.6393 53.9752 40.0699 43.4044 40.0699C32.8335 40.0699 24.2642 48.6393 24.2642 59.2102C24.2642 69.781 32.8335 78.3504 43.4044 78.3504Z" fill="#007E24"/>
<path d="M41.5078 66.5115C41.0772 66.5123 40.6581 66.373 40.3136 66.1146L40.2922 66.0986L35.794 62.6576C35.5857 62.4979 35.4108 62.2987 35.2795 62.0714C35.1481 61.8441 35.0628 61.5932 35.0284 61.333C34.9941 61.0727 35.0113 60.8083 35.0791 60.5547C35.147 60.3011 35.2641 60.0633 35.4238 59.855C35.5835 59.6467 35.7827 59.4718 36.01 59.3405C36.2373 59.2091 36.4882 59.1238 36.7484 59.0894C37.0087 59.0551 37.2732 59.0723 37.5267 59.1401C37.7803 59.208 38.0181 59.3251 38.2264 59.4848L41.14 61.7191L48.0249 52.7369C48.1846 52.5287 48.3837 52.3539 48.6109 52.2226C48.8381 52.0913 49.0889 52.006 49.349 51.9717C49.6092 51.9373 49.8735 51.9545 50.127 52.0223C50.3805 52.0901 50.6182 52.2072 50.8264 52.3669L50.827 52.3673L50.7843 52.4266L50.8281 52.3673C51.2483 52.6902 51.5231 53.1666 51.5924 53.6919C51.6617 54.2172 51.5198 54.7485 51.1977 55.1693L43.0996 65.7296C42.9122 65.9729 42.6713 66.1698 42.3956 66.305C42.1198 66.4402 41.8167 66.5101 41.5096 66.5092L41.5078 66.5115Z" fill="white"/>
<path d="M157.355 124.729C157.588 124.352 157.862 124.003 158.172 123.687C158.3 123.555 158.435 123.43 158.574 123.308C159.42 122.555 160.452 122.04 161.563 121.818C162.674 121.596 163.824 121.673 164.895 122.043C165.966 122.412 166.919 123.06 167.657 123.92C168.394 124.78 168.89 125.821 169.091 126.936C170.026 123.479 167.593 120.074 165.146 117.458C162.698 114.844 159.901 111.975 159.915 108.392C159.922 106.399 160.897 104.62 162.369 103.302C162.415 103.262 162.46 103.222 162.507 103.183C164.286 101.658 166.576 100.86 168.918 100.949C173.27 101.182 177.069 104.107 179.708 107.576C183.955 113.158 185.816 120.993 182.843 127.347C180.228 132.936 174.65 136.254 168.957 138.922C168.162 139.295 167.369 139.656 166.577 140.006C166.572 140.008 166.566 140.012 166.561 140.013C166.523 140.03 166.484 140.046 166.449 140.064C166.285 140.136 166.122 140.208 165.96 140.279L166.035 140.328L166.269 140.48C166.188 140.431 166.108 140.383 166.026 140.334C166.002 140.319 165.977 140.305 165.953 140.29C163.157 138.612 160.322 136.837 158.39 134.218C156.387 131.499 155.581 127.604 157.355 124.729Z" fill="#F1F1F1"/>
<path d="M176.009 118.413C176.628 119.822 177.039 121.313 177.227 122.84C177.376 124.201 177.32 125.578 177.062 126.923C176.506 129.687 175.296 132.277 173.531 134.475C172.2 136.144 170.663 137.639 168.957 138.922C168.162 139.295 167.368 139.656 166.577 140.006C166.571 140.008 166.566 140.012 166.56 140.013C166.522 140.03 166.484 140.046 166.448 140.064C166.285 140.136 166.122 140.208 165.96 140.279L166.035 140.328L166.269 140.48C166.188 140.431 166.107 140.383 166.026 140.334C166.002 140.319 165.977 140.305 165.952 140.29C166.568 138.138 166.658 135.869 166.216 133.675C165.774 131.48 164.813 129.424 163.412 127.677C162.004 125.953 160.209 124.586 158.172 123.687C158.3 123.555 158.435 123.43 158.574 123.308C159.358 123.668 160.11 124.097 160.819 124.59C163.354 126.342 165.258 128.865 166.249 131.784C167.133 134.432 167.244 137.277 166.567 139.986C166.708 139.894 166.849 139.8 166.986 139.706C169.59 137.95 171.991 135.84 173.799 133.253C175.359 131.067 176.357 128.531 176.705 125.868C177.052 122.959 176.324 120.098 175.025 117.503C173.591 114.726 171.784 112.159 169.654 109.871C167.515 107.521 165.096 105.442 162.452 103.679C162.392 103.639 162.351 103.577 162.335 103.507C162.32 103.437 162.332 103.363 162.369 103.302C162.397 103.246 162.447 103.203 162.506 103.183C162.537 103.176 162.568 103.175 162.599 103.181C162.629 103.187 162.658 103.2 162.683 103.219C163.009 103.437 163.333 103.657 163.653 103.883C166.316 105.769 168.734 107.978 170.853 110.46C172.9 112.852 174.762 115.51 176.009 118.413Z" fill="white"/>
<path d="M119.004 8.88729C121.249 8.88729 123.069 7.06739 123.069 4.82243C123.069 2.57747 121.249 0.757568 119.004 0.757568C116.759 0.757568 114.939 2.57747 114.939 4.82243C114.939 7.06739 116.759 8.88729 119.004 8.88729Z" fill="#F1F1F1"/>
<path d="M169.548 63.2847C170.917 63.2847 172.026 62.1751 172.026 60.8064C172.026 59.4377 170.917 58.3281 169.548 58.3281C168.179 58.3281 167.07 59.4377 167.07 60.8064C167.07 62.1751 168.179 63.2847 169.548 63.2847Z" fill="#F1F1F1"/>
<path d="M97.0183 70.0845C98.387 70.0845 99.4966 68.9749 99.4966 67.6062C99.4966 66.2375 98.387 65.1279 97.0183 65.1279C95.6496 65.1279 94.54 66.2375 94.54 67.6062C94.54 68.9749 95.6496 70.0845 97.0183 70.0845Z" fill="#F1F1F1"/>
<path d="M98.4176 140.753H184.773C184.834 140.753 184.891 140.729 184.934 140.687C184.976 140.644 185 140.587 185 140.527C185 140.466 184.976 140.409 184.934 140.366C184.891 140.324 184.834 140.3 184.773 140.3H98.4176C98.3575 140.3 98.2998 140.324 98.2573 140.366C98.2148 140.409 98.1909 140.466 98.1909 140.527C98.1909 140.587 98.2148 140.644 98.2573 140.687C98.2998 140.729 98.3575 140.753 98.4176 140.753Z" fill="#CBCBCB"/>
<path d="M175.243 21.9029C175.357 21.0979 175.171 20.2792 174.721 19.602C174.271 18.9248 173.588 18.4362 172.802 18.2287C172.016 18.0213 171.181 18.1093 170.456 18.4763C169.73 18.8433 169.165 19.4636 168.866 20.2197L161.858 28.2534L163.915 33.9961L170.962 24.6091C171.422 24.7564 171.908 24.8011 172.387 24.74C172.866 24.6789 173.326 24.5136 173.734 24.2556C174.143 23.9976 174.489 23.6532 174.75 23.2467C175.011 22.8402 175.179 22.3815 175.243 21.9029Z" fill="#FFB7B7"/>
<path d="M146.196 53.1619L169.457 28.3365L166.32 23.3483L137.144 48.0229L146.196 53.1619Z" fill="#3F3D56"/>
<path d="M141.004 38.0781C145.511 38.0781 149.164 34.425 149.164 29.9185C149.164 25.4121 145.511 21.7589 141.004 21.7589C136.498 21.7589 132.845 25.4121 132.845 29.9185C132.845 34.425 136.498 38.0781 141.004 38.0781Z" fill="#2F2E41"/>
<path d="M141.66 25.3092C143.416 23.5286 145.541 22.1547 147.885 21.2839C149.39 20.7265 151.027 20.3821 152.6 20.6986C154.174 21.0152 155.661 22.1035 156.1 23.6469C156.459 24.909 156.088 26.2679 155.531 27.456C154.975 28.6441 154.231 29.7458 153.781 30.9782C153.321 32.2357 153.183 33.5881 153.379 34.9125C153.574 36.237 154.098 37.4916 154.901 38.5624C155.705 39.6333 156.763 40.4865 157.98 41.0447C159.197 41.6028 160.534 41.8482 161.87 41.7585C160.324 41.9657 158.899 42.6921 157.389 43.0787C155.878 43.4653 154.095 43.4391 152.972 42.3568C151.784 41.2116 151.76 39.3497 151.818 37.7007C151.903 35.2494 151.988 32.7981 152.074 30.3469C152.117 29.0967 152.155 27.8066 151.704 26.6398C151.253 25.473 150.181 24.4513 148.931 24.4619C147.983 24.4699 147.144 25.0442 146.383 25.6106C145.623 26.1769 144.818 26.7812 143.874 26.8654C142.93 26.9497 141.852 26.2509 141.922 25.3055L141.66 25.3092Z" fill="#2F2E41"/>
<path d="M110.014 84.7065C109.23 84.9241 108.394 84.8468 107.664 84.4892C106.934 84.1317 106.36 83.5187 106.052 82.7665C105.744 82.0142 105.722 81.175 105.991 80.4078C106.26 79.6406 106.801 78.9987 107.512 78.6038L114.561 70.6066L120.523 71.8947L112.137 80.1082C112.343 80.5449 112.451 81.0215 112.453 81.5044C112.455 81.9873 112.351 82.4647 112.149 82.9031C111.946 83.3415 111.65 83.7302 111.281 84.0418C110.912 84.3533 110.48 84.5802 110.014 84.7065Z" fill="#FFB7B7"/>
<path d="M133.205 56.0758L115.636 78.1294L110.28 75.6706L130.931 43.5206L133.205 56.0758Z" fill="#3F3D56"/>
<path d="M119.186 122.669L114.999 122.603L115.503 136.875H119.186L119.186 122.669Z" fill="#FFB7B7"/>
<path d="M120.125 135.672L112.872 135.672H112.872C111.646 135.672 110.47 136.159 109.603 137.026C108.737 137.893 108.25 139.068 108.25 140.294V140.444L120.125 140.445L120.125 135.672Z" fill="#2F2E41"/>
<path d="M146.911 118.883L142.336 121.82L151.486 132.828L154.585 130.838L146.911 118.883Z" fill="#FFB7B7"/>
<path d="M154.726 129.318L148.623 133.237L148.622 133.237C147.591 133.899 146.865 134.944 146.604 136.142C146.343 137.34 146.568 138.592 147.23 139.624L147.311 139.75L157.305 133.335L154.726 129.318Z" fill="#2F2E41"/>
<path d="M148.54 75.3041C148.54 75.3041 138.377 41.5489 135.111 41.0927C131.845 40.6366 126.582 49.7539 126.582 49.7539C119.759 58.4594 112.724 86.6583 112.724 86.6583C112.724 86.6583 124.452 87.3922 133.026 91.9537C141.6 96.5152 151.718 91.7228 151.718 91.7228L148.54 75.3041Z" fill="#3F3D56"/>
<path opacity="0.1" d="M148.54 75.3042C148.54 75.3042 138.377 41.549 135.111 41.0928C131.845 40.6367 127.919 49.8465 127.919 49.8465C124.519 63.8992 112.724 86.6583 112.724 86.6583C112.724 86.6583 124.452 87.3923 133.026 91.9538C141.6 96.5153 151.718 91.7229 151.718 91.7229L148.54 75.3042Z" fill="black"/>
<path d="M140.202 65.2048V82.1666L142.198 106.737L152.171 125.323L147.411 128.723L133.812 111.043L128.433 93.4892L119.986 132.349L113.639 131.896L118.047 78.0172L126.411 62.8517L140.202 65.2048Z" fill="#2F2E41"/>
<path d="M129.955 48.799C126.782 51.9721 129.728 55.372 129.728 55.372L126.102 63.5316L140.381 67.3847L145.371 45.0867L141.971 41.4602C135.171 41.2336 135.168 41.0927 135.168 41.0927C133.976 42.2585 129.955 48.799 129.955 48.799Z" fill="#007E24"/>
<path d="M145.946 42.7766C145.298 42.2979 144.561 41.9526 143.778 41.7608C142.995 41.5689 142.182 41.5343 141.385 41.659C140.589 41.7836 139.825 42.0651 139.138 42.487C138.451 42.9089 137.855 43.4629 137.384 44.1169C133.794 49.1151 130.475 57.1861 135.048 67.252C142.392 83.4148 148.782 91.6888 151.38 91.688C151.493 91.6889 151.606 91.6712 151.714 91.6355C153.313 91.093 155.625 88.3871 156.044 86.0025C156.193 85.149 156.158 83.9602 155.137 83.1439C152.205 80.7988 146.942 73.497 145.3 63.8863C144.392 58.5758 146.152 53.7385 147.788 50.6156C148.479 49.3235 148.681 47.8256 148.357 46.3965C148.034 44.9674 147.206 43.7029 146.025 42.8347L145.946 42.7766Z" fill="#3F3D56"/>
<path d="M141.424 37.2766C144.335 35.6855 145.404 32.036 143.813 29.1252C142.222 26.2145 138.573 25.1448 135.662 26.7359C132.751 28.3271 131.681 31.9766 133.273 34.8873C134.864 37.798 138.513 38.8678 141.424 37.2766Z" fill="#FFB7B7"/>
<path d="M130.096 31.5521H138.769L138.858 30.3069L139.302 31.5521H140.638L140.814 29.0841L141.696 31.5521H144.28V31.4298C144.278 29.7116 143.594 28.0644 142.379 26.8495C141.164 25.6346 139.517 24.9512 137.799 24.9492H136.576C134.858 24.9512 133.211 25.6346 131.996 26.8495C130.781 28.0644 130.098 29.7116 130.096 31.4298V31.5521Z" fill="#2F2E41"/>
<path d="M142.97 36.0279L146.671 34.8269V25.8387H139.68L139.853 26.0116C142.261 28.4166 144.939 36.9493 142.97 36.0279Z" fill="#2F2E41"/>
</g>
<defs>
<clipPath id="clip0_17_859">
<rect width="185" height="140.753" fill="white"/>
</clipPath>
</defs>
</svg>
