<svg width="51" height="58" viewBox="0 0 51 58" fill="none" xmlns="http://www.w3.org/2000/svg">
<path fill-rule="evenodd" clip-rule="evenodd" d="M37.9645 28.7958H45.2264V27.3899C44.8112 25.852 44.15 24.8095 43.2936 24.1754C42.4372 23.5424 41.3269 23.2716 40.0237 23.2806L10.2406 23.2874C9.50721 23.2874 8.91372 22.6927 8.91372 21.9605C8.91372 21.2271 9.50721 20.6336 10.2406 20.6336L39.9887 20.637C41.8606 20.6189 43.5125 21.0454 44.8687 22.0507C44.9906 22.141 45.1102 22.2358 45.2264 22.3351V21.5373C45.2264 20.2985 44.7153 19.1656 43.8927 18.3431C43.077 17.5205 41.9464 17.0117 40.7007 17.0117H39.7428L39.6198 17.006L39.1515 18.7617H35.9336L37.8427 11.6002C36.2382 11.1715 35.2814 9.51286 35.7113 7.90839L25.0927 5.0639C24.6628 6.66724 23.0053 7.62631 21.4031 7.19642L18.2855 18.7617H14.9671L20.0164 0L42.5489 6.03763L40.3272 14.3567H40.7007C42.6696 14.3567 44.4648 15.168 45.7669 16.4689C47.0712 17.7676 47.8802 19.5662 47.8802 21.5373V28.8703C48.6463 29.0226 49.3312 29.4017 49.8627 29.9332C50.5633 30.6339 51 31.6042 51 32.6727V41.4003C51 42.5139 50.5442 43.5272 49.813 44.2572C49.2906 44.7796 48.6249 45.1621 47.8802 45.337V50.6017C47.8802 52.5718 47.0701 54.3692 45.768 55.6712L45.6845 55.748C44.3869 57.0038 42.6256 57.7823 40.7007 57.7823H7.17949C5.20832 57.7823 3.41091 56.9733 2.10883 55.6724C0.809004 54.3726 0 52.5774 0 50.6017V21.5373C0 19.5605 0.807876 17.7654 2.1077 16.4656C3.40752 15.1657 5.20381 14.3567 7.17949 14.3567H11.3678L11.3859 14.3579L14.72 1.97456L17.9008 2.82644L13.5308 18.7617H10.2L10.6716 17.0117H7.17949C5.93721 17.0117 4.80551 17.5217 3.98409 18.342C3.16381 19.1622 2.65381 20.2951 2.65381 21.5373V50.6017C2.65381 51.844 3.16493 52.9746 3.98635 53.7949C4.80777 54.6174 5.9406 55.1285 7.17949 55.1285H40.7007C41.9114 55.1285 43.0183 54.6434 43.8307 53.8592L43.8916 53.7937C44.7141 52.9723 45.2264 51.8395 45.2264 50.6017V45.4442H37.9645C35.7214 45.4442 33.6814 44.5257 32.2079 43.0521L32.0691 42.8998C30.6745 41.433 29.8147 39.4562 29.8147 37.2943V36.9445C29.8147 34.7116 30.732 32.6761 32.2079 31.1969L32.2225 31.1822C33.7006 29.7098 35.7338 28.7958 37.9645 28.7958ZM27.1654 18.2957C29.105 18.8147 31.1021 17.6638 31.6211 15.7231C32.1413 13.7835 30.9881 11.7864 29.0486 11.2674C27.1079 10.7484 25.1107 11.8993 24.5917 13.84C24.0727 15.7795 25.2258 17.7755 27.1654 18.2957ZM40.879 34.873L40.8857 34.8786C42.119 36.1152 42.1156 38.127 40.8835 39.3625L40.8779 39.3693C39.6412 40.6026 37.6294 40.5992 36.3928 39.367L36.3871 39.3614C35.1539 38.1248 35.1573 36.113 36.3894 34.8763L36.395 34.8707C37.6317 33.6374 39.6435 33.6397 40.879 34.873Z" fill="white"/>
</svg>
