<svg width="511" height="282" viewBox="0 0 511 282" fill="none" xmlns="http://www.w3.org/2000/svg">
<path d="M482.184 256.001C482.64 256.001 483.096 256.033 483.534 256.081C486.345 249.808 493.316 245.344 501.473 245.344C508.59 245.344 514.776 248.72 518.116 253.745C519.886 253.056 521.838 252.656 523.9 252.656C531.784 252.656 538.189 258.273 538.189 265.185C538.189 265.249 538.171 265.313 538.171 265.377H520.397H492.878H471.436C471.454 260.209 476.253 256.001 482.184 256.001Z" fill="#7CC18E"/>
<path d="M558.665 172.491C558.665 197.917 540.708 218.526 518.572 218.526C496.437 218.526 478.48 197.917 478.48 172.491C478.48 147.065 496.437 126.456 518.572 126.456C540.726 126.456 558.665 147.065 558.665 172.491Z" fill="#92E3A9"/>
<path d="M441.873 264.976V208.349C441.873 206.701 440.596 205.373 439.008 205.373H438.826C437.256 205.373 435.96 206.701 435.96 208.349V264.96H441.873V264.976Z" fill="#300032"/>
<path d="M464.446 205.373C464.446 221.566 453.023 234.687 438.917 234.687C424.81 234.687 413.387 221.566 413.387 205.373C413.387 189.18 424.81 176.043 438.917 176.043C453.023 176.043 464.446 189.18 464.446 205.373Z" fill="#5698A7"/>
<path d="M545.671 256.001C545.215 256.001 544.759 256.033 544.321 256.081C541.511 249.808 534.54 245.344 526.383 245.344C519.266 245.344 513.079 248.72 509.721 253.745C507.951 253.056 505.999 252.656 503.937 252.656C496.053 252.656 489.648 258.273 489.648 265.185C489.648 265.249 489.666 265.313 489.666 265.377H507.44H534.959H556.402C556.383 260.209 551.584 256.001 545.671 256.001Z" fill="#92E3A9"/>
<path d="M428.588 260.688C428.825 260.688 429.044 260.704 429.263 260.736C430.668 257.584 434.154 255.36 438.241 255.36C441.8 255.36 444.902 257.056 446.581 259.568C447.475 259.232 448.442 259.024 449.482 259.024C453.442 259.024 456.636 261.84 456.636 265.296C456.636 265.328 456.636 265.36 456.636 265.392H447.749H433.971H423.241C423.223 262.8 425.631 260.688 428.588 260.688Z" fill="#5698A7"/>
<path d="M384.955 0H214.896L319.68 84.4534L489.119 66.1642L384.955 0Z" fill="#92E3A9"/>
<path d="M319.717 265.393H111.354V73.3489L215.845 10.0649L319.717 73.3489V265.393Z" fill="white"/>
<path d="M319.68 81.0775L215.517 14.9133L111.354 81.0775V99.3827L215.517 33.2185L319.68 99.3827V81.0775Z" fill="#969696"/>
<path d="M319.68 66.1642L215.517 0L111.354 66.1642V84.4534L215.517 18.2892L319.68 84.4534V66.1642Z" fill="#007E24"/>
<path d="M489.119 66.1641H319.68V84.4692H489.119V66.1641Z" fill="#7CC18E"/>
<path d="M489.119 84.4539H319.68V265.393H489.119V84.4539Z" fill="white"/>
<path d="M489.119 84.4539H319.68V99.3668H489.119V84.4539Z" fill="#C7C7C7"/>
<path d="M285.299 174.395H143.745V265.392H285.299V174.395Z" fill="white"/>
<path d="M213.436 111.271H71.4434L143.745 174.395L285.299 156.922L213.436 111.271Z" fill="#92E3A9"/>
<path d="M143.781 265.393H0V161.882L72.1005 123.064L143.781 161.882V265.393Z" fill="white"/>
<path d="M143.745 167.931L71.8815 122.28L0 167.931V187.916L71.8815 142.266L143.745 187.916V167.931Z" fill="#969696"/>
<path d="M143.745 156.922L71.8815 111.271L0 156.922V174.395L71.8815 128.745L143.745 174.395V156.922Z" fill="#007E24"/>
<path d="M285.299 167.915H143.745V187.9H285.299V167.915Z" fill="#C7C7C7"/>
<path d="M285.299 156.922H143.745V174.395H285.299V156.922Z" fill="#7CC18E"/>
<path d="M94.1992 265.393V206.365C94.1992 195.693 84.3267 187.036 72.1549 187.036H70.7314C58.5596 187.036 48.687 195.693 48.687 206.365V265.393H94.1992Z" fill="#C7C7C7"/>
<path d="M94.1987 265.393V206.365C94.1987 195.692 85.8956 187.036 75.6581 187.036H74.4538C64.2163 187.036 55.9131 195.692 55.9131 206.365V265.393H94.1987Z" fill="#300032"/>
<path d="M197.359 241.968V206.365C197.359 195.693 207.232 187.036 219.404 187.036H220.827C232.999 187.036 242.872 195.693 242.872 206.365V241.968H197.359Z" fill="#C7C7C7"/>
<path d="M197.359 241.968V206.365C197.359 195.693 205.663 187.036 215.882 187.036H217.086C227.324 187.036 235.627 195.693 235.627 206.365V241.968H197.359Z" fill="#300032"/>
<path d="M391.525 234.447V206.365C391.525 195.693 401.398 187.036 413.57 187.036H414.993C427.165 187.036 437.037 195.693 437.037 206.365V234.447H391.525Z" fill="#C7C7C7"/>
<path d="M391.525 234.447V206.365C391.525 195.693 399.828 187.036 410.048 187.036H411.252C421.49 187.036 429.774 195.693 429.774 206.365V234.447H391.525Z" fill="#300032"/>
<path d="M235.316 95.4465V75.5892C235.316 64.9166 225.444 56.26 213.272 56.26H211.849C199.677 56.26 189.804 64.9166 189.804 75.5892V95.4465H235.316Z" fill="#C7C7C7"/>
<path d="M235.317 95.4465V75.5892C235.317 64.9166 227.014 56.26 216.794 56.26H215.59C205.352 56.26 197.067 64.9166 197.067 75.5892V95.4465H235.317Z" fill="#300032"/>
<path d="M391.525 155.946V136.089C391.525 125.416 401.398 116.759 413.57 116.759H414.993C427.165 116.759 437.037 125.416 437.037 136.089V155.946H391.525Z" fill="#C7C7C7"/>
<path d="M391.525 155.946V136.089C391.525 125.416 399.828 116.759 410.048 116.759H411.252C421.49 116.759 429.774 125.416 429.774 136.089V155.946H391.525Z" fill="#300032"/>
<path d="M241.339 235.119C240.846 235.119 240.353 235.151 239.879 235.215C236.831 228.414 229.294 223.598 220.462 223.598C212.779 223.598 206.064 227.246 202.451 232.687C200.535 231.935 198.418 231.519 196.191 231.519C187.651 231.519 180.735 237.599 180.735 245.071C180.735 245.151 180.753 245.216 180.753 245.296H199.969H229.751H252.945C252.927 239.679 247.744 235.119 241.339 235.119Z" fill="#92E3A9"/>
<path d="M237.031 235.999C237.487 235.999 237.925 236.031 238.363 236.079C241.137 229.871 248.035 225.47 256.119 225.47C263.145 225.47 269.277 228.815 272.58 233.775C274.331 233.087 276.266 232.703 278.31 232.703C286.12 232.703 292.452 238.255 292.452 245.104C292.452 245.168 292.434 245.232 292.434 245.296H274.861H247.634H226.429C226.429 240.159 231.173 235.999 237.031 235.999Z" fill="#007E24"/>
<path d="M303.311 241.967H197.177V265.393H303.311V241.967Z" fill="#969696"/>
<path d="M197.177 241.967H171.957V265.393H197.177V241.967Z" fill="#C7C7C7"/>
<path d="M423.059 233.519C422.493 233.519 421.927 233.567 421.38 233.631C417.858 225.759 409.135 220.19 398.898 220.19C389.992 220.19 382.237 224.415 378.039 230.703C375.813 229.839 373.368 229.343 370.776 229.343C360.886 229.343 352.875 236.367 352.875 245.04C352.875 245.136 352.893 245.216 352.893 245.296H375.138H409.61H436.453C436.49 238.784 430.486 233.519 423.059 233.519Z" fill="#92E3A9"/>
<path d="M489.302 235.599C488.827 235.599 488.371 235.631 487.915 235.679C485.013 229.198 477.823 224.606 469.411 224.606C462.075 224.606 455.688 228.094 452.239 233.279C450.414 232.559 448.388 232.159 446.253 232.159C438.114 232.159 431.508 237.951 431.508 245.087C431.508 245.167 431.527 245.231 431.527 245.295H449.866H478.261H500.379C500.36 239.935 495.415 235.599 489.302 235.599Z" fill="#7CC18E"/>
<path d="M411.763 235.566C412.237 235.566 412.693 235.598 413.15 235.646C416.069 229.15 423.259 224.542 431.708 224.542C439.063 224.542 445.468 228.03 448.935 233.23C450.76 232.51 452.786 232.11 454.921 232.11C463.078 232.11 469.702 237.918 469.702 245.071C469.702 245.135 469.702 245.215 469.702 245.279H451.326H422.858H400.667C400.667 239.918 405.631 235.566 411.763 235.566Z" fill="#007E24"/>
<path d="M504.046 241.967H364.608V265.393H504.046V241.967Z" fill="#969696"/>
<path d="M364.626 241.967H339.389V265.393H364.626V241.967Z" fill="#C7C7C7"/>
<path d="M556.383 265.393H0V281.474H556.383V265.393Z" fill="#969696"/>
</svg>
