<svg width="62" height="62" viewBox="0 0 62 62" fill="none" xmlns="http://www.w3.org/2000/svg">
<path d="M58.0122 13.4838C57.9851 13.0508 57.8134 12.6394 57.5247 12.3155C57.2359 11.9916 56.8469 11.7741 56.4198 11.6976C46.0021 9.83038 41.6185 8.36999 32.2107 4.13655C31.271 3.78659 30.6886 3.79264 29.7888 4.13655C20.3811 8.37483 15.9975 9.82795 5.57978 11.6976C5.1527 11.7741 4.76363 11.9916 4.4749 12.3155C4.18618 12.6394 4.01451 13.0508 3.9874 13.4838C3.52119 20.8826 4.51295 27.7728 6.93725 33.9668C8.91957 39.0175 11.8563 43.6391 15.587 47.5789C20.9962 53.3224 26.994 56.6755 30.0867 57.9446C30.6732 58.1838 31.33 58.1838 31.9165 57.9446C35.186 56.6222 40.961 53.3648 46.4126 47.5765C50.143 43.6374 53.0797 39.0167 55.0623 33.9668C57.4866 27.774 58.4784 20.8826 58.0122 13.4838Z" fill="white"/>
<path d="M23.2502 41.5833C22.5856 41.5833 22.0165 41.3465 21.5428 40.8728C21.0691 40.3992 20.8327 39.8305 20.8335 39.1667V27.0833C20.8335 26.4188 21.0703 25.8496 21.544 25.376C22.0177 24.9023 22.5864 24.6659 23.2502 24.6667H24.4585V22.25C24.4585 20.5785 25.0478 19.1535 26.2263 17.9749C27.4048 16.7964 28.8294 16.2075 30.5002 16.2083C32.1717 16.2083 33.5967 16.7976 34.7753 17.9761C35.9538 19.1547 36.5426 20.5793 36.5418 22.25V24.6667H37.7502C38.4148 24.6667 38.9839 24.9035 39.4575 25.3772C39.9312 25.8508 40.1676 26.4196 40.1668 27.0833V39.1667C40.1668 39.8313 39.93 40.4004 39.4563 40.8741C38.9827 41.3477 38.4139 41.5842 37.7502 41.5833H23.2502ZM30.5002 35.5417C31.1648 35.5417 31.7339 35.3048 32.2075 34.8312C32.6812 34.3575 32.9176 33.7888 32.9168 33.125C32.9168 32.4604 32.68 31.8913 32.2063 31.4176C31.7327 30.944 31.1639 30.7075 30.5002 30.7083C29.8356 30.7083 29.2665 30.9452 28.7928 31.4188C28.3191 31.8925 28.0827 32.4612 28.0835 33.125C28.0835 33.7896 28.3203 34.3587 28.794 34.8324C29.2677 35.3061 29.8364 35.5425 30.5002 35.5417ZM26.8752 24.6667H34.1252V22.25C34.1252 21.2431 33.7727 20.3872 33.0679 19.6823C32.363 18.9774 31.5071 18.625 30.5002 18.625C29.4932 18.625 28.6373 18.9774 27.9325 19.6823C27.2276 20.3872 26.8752 21.2431 26.8752 22.25V24.6667Z" fill="#007E24"/>
</svg>
