<svg width="323" height="252" viewBox="0 0 323 252" fill="none" xmlns="http://www.w3.org/2000/svg">
<path d="M221.141 238.282C221.775 238.282 222.396 238.327 223.004 238.396C226.9 229.714 236.516 223.563 247.802 223.563C257.626 223.563 266.181 228.239 270.814 235.173C273.26 234.219 275.965 233.675 278.812 233.675C289.723 233.675 298.563 241.426 298.563 250.992C298.563 251.083 298.55 251.174 298.55 251.276H273.998H235.96H206.334C206.322 244.104 212.948 238.282 221.141 238.282Z" fill="#92E3A9"/>
<path d="M314.599 244.774C314.275 244.774 313.977 244.796 313.667 244.83C311.725 240.484 306.898 237.408 301.255 237.408C296.337 237.408 292.053 239.746 289.736 243.219C288.507 242.742 287.161 242.47 285.724 242.47C280.262 242.47 275.836 246.351 275.836 251.14C275.836 251.185 275.849 251.231 275.849 251.276H288.144H307.183H322.015C322.015 247.679 318.688 244.774 314.599 244.774Z" fill="#007E24"/>
<path d="M239.545 0H77.6089V44.1565H239.545V0Z" fill="#92E3A9"/>
<path d="M77.6093 0H-5.61084V44.1565H77.6093V0Z" fill="#007E24"/>
<path d="M259.14 26.3284H77.6089V251.276H259.14V26.3284Z" fill="white"/>
<path d="M77.6089 26.3284H-20.5986V251.276H77.6089V26.3284Z" fill="#C7C7C7"/>
<path d="M153.375 251.276V199.845C153.375 190.551 161.968 183.004 172.568 183.004H173.811C184.411 183.004 193.017 190.54 193.017 199.845V251.276H153.375Z" fill="#969696"/>
<path d="M153.375 251.276V199.845C153.375 190.551 160.609 183.004 169.514 183.004H170.562C179.479 183.004 186.701 190.54 186.701 199.845V251.276H153.375Z" fill="#300032"/>
<path d="M45.124 217.14V199.845C45.124 190.551 36.5302 183.004 25.9174 183.004H24.6749C14.075 183.004 5.46826 190.54 5.46826 199.845V217.14H45.124Z" fill="#969696"/>
<path d="M45.1242 217.14V199.845C45.1242 190.551 37.9023 183.004 28.985 183.004H27.9366C19.0322 183.004 11.7974 190.54 11.7974 199.845V217.14H45.1242Z" fill="#300032"/>
<path d="M45.124 155.87V138.575C45.124 129.281 36.5302 121.734 25.9174 121.734H24.6749C14.075 121.734 5.46826 129.269 5.46826 138.575V155.87H45.124Z" fill="#969696"/>
<path d="M45.1242 155.87V138.575C45.1242 129.281 37.9023 121.734 28.985 121.734H27.9366C19.0322 121.734 11.7974 129.269 11.7974 138.575V155.87H45.1242Z" fill="#300032"/>
<path d="M45.124 94.5888V77.2939C45.124 67.9996 36.5302 60.4529 25.9174 60.4529H24.6749C14.075 60.4529 5.46826 67.9882 5.46826 77.2939V94.5888H45.124Z" fill="#969696"/>
<path d="M45.1242 94.5888V77.2939C45.1242 67.9996 37.9023 60.4529 28.985 60.4529H27.9366C19.0322 60.4529 11.7974 67.9882 11.7974 77.2939V94.5888H45.1242Z" fill="#300032"/>
<path d="M110.574 113.472V77.3051C110.574 68.0108 119.168 60.4641 129.78 60.4641H131.023C141.623 60.4641 150.217 67.9994 150.217 77.3051V113.472H110.574Z" fill="#969696"/>
<path d="M110.574 113.472V77.3051C110.574 68.0108 117.796 60.4641 126.713 60.4641H127.761C136.666 60.4641 143.901 67.9994 143.901 77.3051V113.472H110.574Z" fill="#300032"/>
<path d="M186.533 113.472V77.3051C186.533 68.0108 195.127 60.4641 205.74 60.4641H206.982C217.595 60.4641 226.189 67.9994 226.189 77.3051V113.472H186.533Z" fill="#969696"/>
<path d="M186.533 113.472V77.3051C186.533 68.0108 193.755 60.4641 202.672 60.4641H203.721C212.638 60.4641 219.86 67.9994 219.86 77.3051V113.472H186.533Z" fill="#300032"/>
<path d="M259.128 126.932H108.374V155.745H259.128V126.932Z" fill="#92E3A9"/>
<path d="M108.386 126.932H77.3501V155.745H108.386V126.932Z" fill="#007E24"/>
<path d="M2.76271 244.774C2.45209 244.774 2.12852 244.796 1.83085 244.83C-0.123466 240.484 -4.93806 237.408 -10.581 237.408C-15.4991 237.408 -19.7831 239.746 -22.0998 243.219C-23.3293 242.742 -24.6753 242.47 -26.1119 242.47C-31.5737 242.47 -36 246.351 -36 251.14C-36 251.185 -35.9871 251.231 -35.9871 251.276H-23.6917H-4.65332H10.1788C10.1788 247.679 6.86547 244.774 2.76271 244.774Z" fill="#92E3A9"/>
</svg>
