<svg width="219" height="189" viewBox="0 0 219 189" fill="none" xmlns="http://www.w3.org/2000/svg">
<g clip-path="url(#clip0_17_808)">
<path d="M91.0972 163.852L93.4892 156.063C90.6112 152.895 87.0036 150.478 82.9795 149.021C86.911 155.535 83.1014 164.031 84.6889 171.472C85.2018 173.789 86.2295 175.96 87.6959 177.826C89.1622 179.692 91.0295 181.203 93.1596 182.249L96.7893 186.747C98.6922 183.422 99.8517 179.725 100.188 175.909C100.524 172.093 100.029 168.249 98.7371 164.643C97.9922 162.628 96.9964 160.713 95.7732 158.946C93.6162 161.482 91.0972 163.852 91.0972 163.852Z" fill="#F2F2F2"/>
<path d="M77.9451 164.848L76.6118 156.809C72.6233 155.257 68.3163 154.703 64.0649 155.193C70.4887 159.27 70.8683 168.574 75.6075 174.525C77.0998 176.37 78.9882 177.856 81.1327 178.872C83.2772 179.888 85.6227 180.408 87.9956 180.394L93.2502 182.8C93.4706 178.976 92.8594 175.15 91.4585 171.584C90.0577 168.019 87.9006 164.8 85.1358 162.148C83.57 160.676 81.8251 159.407 79.9423 158.371C79.1426 161.603 77.9451 164.848 77.9451 164.848Z" fill="#F2F2F2"/>
<path d="M156.231 184.748L152.546 184.747L150.793 170.536L156.231 170.537L156.231 184.748Z" fill="#FFB6B6"/>
<path d="M157.17 188.319L145.29 188.318V188.168C145.29 186.942 145.777 185.766 146.644 184.899C147.512 184.031 148.688 183.544 149.914 183.544H149.914L152.084 181.898L156.133 183.544L157.17 183.545L157.17 188.319Z" fill="#2F2E41"/>
<path d="M215.747 171.309L213.235 174.004L201.644 165.597L205.351 161.619L215.747 171.309Z" fill="#FFB6B6"/>
<path d="M219 173.057L210.9 181.747L210.79 181.644C209.893 180.808 209.365 179.65 209.322 178.424C209.279 177.199 209.724 176.006 210.56 175.109L210.836 172.399L214.8 170.56L215.508 169.801L219 173.057Z" fill="#2F2E41"/>
<path d="M210.295 163.322L206.401 171.467L182.488 155.634L179.009 150.894L167.602 135.352L162.965 142.709L159.739 150.4C158.687 151.086 157.801 151.997 157.145 153.067C156.488 154.137 156.077 155.34 155.942 156.588L155.794 157.949L157.833 176.277L150.084 178.656L145.634 154.036L147.089 148.7L148.586 141.211L156.127 117.546H176.307L187.881 142.183L188.727 147.203L192.009 150.969L210.295 163.322Z" fill="#2F2E41"/>
<path d="M168.358 78.8281L171.755 81.4148L175.852 82.6737C175.852 82.6737 177.546 106.497 179.072 108.023C180.598 109.549 179.221 109.59 179.528 111.573C179.835 113.555 180.58 117.619 180.58 117.619C170.279 123.072 161.399 123.218 154.265 116.837C154.174 116.443 154.221 116.029 154.397 115.664C154.573 115.299 154.869 115.005 155.235 114.832C156.562 114.127 154.011 110.839 155.096 110.29C156.181 109.74 154.655 104.971 154.655 104.971L155.656 95.0211L154.865 93.4305L156.795 83.6983L160.144 82.4752L161.482 79.2519L168.358 78.8281Z" fill="#3F3D56"/>
<path d="M170.486 121.17C170.471 120.74 170.55 120.312 170.719 119.915C170.887 119.519 171.14 119.165 171.46 118.877C171.78 118.589 172.159 118.375 172.571 118.249C172.983 118.124 173.417 118.09 173.843 118.151L178.631 108.845L181.298 113.584L176.343 121.694C176.194 122.403 175.79 123.033 175.207 123.465C174.624 123.896 173.904 124.098 173.182 124.034C172.46 123.969 171.787 123.642 171.29 123.114C170.793 122.586 170.507 121.895 170.486 121.17Z" fill="#FFB6B6"/>
<path d="M178.548 118.894L188.817 102.979L188.783 102.906C188.744 102.822 186.419 97.8 184.166 93.2003C183.819 92.4919 183.474 91.7935 183.139 91.1248C182.994 90.8362 182.852 90.5536 182.712 90.277C181.765 88.4114 180.938 86.8695 180.445 86.137C179.353 84.481 177.728 83.2481 175.839 82.6431L175.792 82.6309L175.746 82.6498C174.822 83.0397 174.059 83.7328 173.582 84.6148C173.104 85.4968 172.942 86.5152 173.121 87.5019C174.012 92.2611 175.997 96.7482 178.919 100.609L180.583 102.803L174.798 115.38L178.548 118.894Z" fill="#3F3D56"/>
<path d="M143.239 57.8903C143.521 58.215 143.73 58.5976 143.848 59.0114C143.967 59.4252 143.994 59.86 143.927 60.2852C143.859 60.7104 143.699 61.1157 143.458 61.4724C143.218 61.8292 142.901 62.1288 142.532 62.3501L144.673 72.5936L139.616 70.5917L138.359 61.1713C138.028 60.5263 137.946 59.7825 138.127 59.0806C138.308 58.3788 138.74 57.7678 139.341 57.3634C139.943 56.9589 140.672 56.7892 141.39 56.8863C142.108 56.9834 142.766 57.3407 143.239 57.8903Z" fill="#FFB6B6"/>
<path d="M138.409 64.7354L140.453 83.5645L140.526 83.6001C140.585 83.6294 143.176 84.9 146.356 86.4131C146.892 86.6684 146.815 87.7741 147.376 88.0384C147.762 88.2204 148.782 87.5599 149.172 87.7423C152.647 89.3677 156.162 90.9481 157.562 91.3763C159.453 91.9754 161.492 91.9098 163.34 91.1903L163.385 91.1699L163.408 91.1266C163.881 90.2419 164.037 89.2227 163.853 88.237C163.668 87.2513 163.153 86.358 162.392 85.7044C158.703 82.5681 154.336 80.3321 149.635 79.1728L146.96 78.5165L143.534 65.1034L138.409 64.7354Z" fill="#3F3D56"/>
<path d="M164.736 77.7612C168.447 77.7612 171.456 74.7528 171.456 71.0418C171.456 67.3309 168.447 64.3225 164.736 64.3225C161.025 64.3225 158.017 67.3309 158.017 71.0418C158.017 74.7528 161.025 77.7612 164.736 77.7612Z" fill="#FFB6B6"/>
<path d="M158.065 66.5395C158.618 64.9319 161.369 63.8169 165.828 63.6618C170.288 63.5068 171.419 68.762 171.419 68.762C174.396 71.177 168.24 77.6424 167.942 77.4096L168.076 76.1948C168.298 74.1828 169.24 72.6129 168.041 70.5159L166.891 70.5292C165.405 70.8149 163.919 71.1007 162.433 71.3864L164.192 69.8374L164.143 69.7607C163.394 70.1504 162.58 70.3977 161.741 70.4898C160.796 70.5454 159.762 70.1691 159.309 69.3372C159.188 69.1085 159.114 68.8579 159.092 68.6002C157.816 69.1097 157.233 70.6816 157.233 70.6816C157.233 70.6816 157.513 68.1471 158.065 66.5395Z" fill="#2F2E41"/>
<path d="M27.0723 66.9426C26.9811 66.827 26.8829 66.7171 26.7783 66.6135C26.8039 66.5784 26.8295 66.54 26.855 66.5049L27.0723 66.9426Z" fill="#2F2E41"/>
<path d="M28.3789 93.9673C27.2797 95.9196 25.0847 97.0091 22.9087 97.5427C20.4647 98.1829 17.891 98.1331 15.4735 97.3989C15.1668 97.2999 14.8601 97.1848 14.5629 97.0571C14.7058 96.6776 14.819 96.2877 14.9016 95.8908C15.0128 95.3537 15.0685 94.8066 15.0678 94.2581C14.8257 94.7305 14.512 95.1627 14.138 95.5393C13.8494 95.8425 13.5217 96.1058 13.1634 96.3221C12.0523 95.6478 11.0901 94.7541 10.3357 93.6957C10.3836 93.5775 10.4316 93.4593 10.4763 93.3411C10.7083 92.7236 10.8921 92.089 11.0259 91.4431C11.2074 90.5697 11.2984 89.68 11.2975 88.7879C10.9035 89.5565 10.3926 90.2593 9.78292 90.8712C9.60015 91.0667 9.40598 91.2513 9.20142 91.4239C8.88463 90.4619 8.76217 89.4464 8.84115 88.4366C8.92013 87.4268 9.19899 86.4427 9.66151 85.5416C10.9268 83.2027 13.3807 81.8128 15.5662 80.3015C17.7549 78.7902 19.9436 76.7453 20.1289 74.0901C20.2535 72.2976 19.4228 70.5019 19.7551 68.7381C19.8949 67.9944 20.236 67.3032 20.7415 66.74C21.2469 66.1768 21.8973 65.763 22.6216 65.5439C23.346 65.3247 24.1166 65.3086 24.8495 65.4971C25.5824 65.6857 26.2495 66.0718 26.7781 66.6133C25.5384 68.3707 24.305 70.1888 23.8034 72.2784C23.2922 74.4064 23.7107 76.9018 25.3882 78.3109C25.9633 78.7966 26.6695 79.1417 27.1136 79.7487C27.7047 80.5539 27.7079 81.6275 27.8038 82.618C27.9955 84.5447 28.6249 86.3979 28.9636 88.3054C29.3055 90.2098 29.3247 92.2771 28.3789 93.9673Z" fill="#2F2E41"/>
<path d="M5.84717 173.203L8.76337 175.456L18.8417 165.28L14.5376 161.955L5.84717 173.203Z" fill="#A0616A"/>
<path d="M5.97113 171.001L10.7934 174.288L9.26735 176.263L11.3111 182.676C11.4121 182.993 11.4092 183.334 11.3029 183.649C11.1965 183.964 10.9922 184.236 10.7199 184.427C10.4475 184.618 10.1214 184.716 9.78903 184.709C9.45667 184.701 9.13553 184.587 8.87248 184.384L3.38448 180.143L3.94805 177.458L2.06919 179.127L0 177.528L5.97113 171.001Z" fill="#2F2E41"/>
<path d="M20.6416 72.6191C20.6412 73.7585 20.9204 74.8805 21.4549 75.8868C21.9894 76.893 22.7626 77.7526 23.7069 78.3902C24.6511 79.0279 25.7375 79.4239 26.8705 79.5437C28.0036 79.6635 29.1487 79.5032 30.2054 79.0771C31.262 78.651 32.198 77.972 32.931 77.0998C33.664 76.2275 34.1717 75.1886 34.4094 74.0744C34.6472 72.9601 34.6078 71.8045 34.2948 70.709C33.9817 69.6135 33.4044 68.6116 32.6138 67.7913L32.5804 67.7579C32.5247 67.6994 32.469 67.6409 32.4105 67.5852L32.4094 67.585L32.4085 67.5844L32.4079 67.5835L32.4077 67.5824C32.3353 67.5156 32.2629 67.4488 32.1878 67.3848C30.9627 66.3101 29.2409 65.1436 27.4841 65.1436C23.639 65.1436 20.6416 68.7741 20.6416 72.6191Z" fill="#2F2E41"/>
<path d="M60.3158 69.0447C60.3491 69.4159 60.3006 69.79 60.1738 70.1404C60.0469 70.4909 59.8447 70.8093 59.5815 71.0732C59.3182 71.3371 59.0003 71.5401 58.6502 71.6678C58.3 71.7956 57.9261 71.845 57.5548 71.8126L40.3187 87.375L37.3525 82.6904L55.2277 68.8661C55.3235 68.2459 55.6435 67.6824 56.127 67.2823C56.6105 66.8822 57.2239 66.6734 57.8511 66.6954C58.4783 66.7174 59.0756 66.9687 59.5298 67.4017C59.9841 67.8347 60.2637 68.4193 60.3158 69.0447Z" fill="#A0616A"/>
<path d="M32.9524 92.0722C32.9524 92.0722 33.5937 93.2567 35.7844 91.4278C37.5381 89.9636 45.9402 83.6071 47.7503 81.0023C48.1637 81.1661 48.6197 81.1877 49.0467 81.0637C49.4736 80.9398 49.8472 80.6773 50.1085 80.3176L45.149 75.9741C43.6651 76.1449 43.6969 77.1418 43.8514 77.7078L40.1103 79.4027L30.4497 85.5766L32.4737 91.2243L32.9524 92.0722Z" fill="#007E24"/>
<path d="M23.5933 102.985L23.232 104.705L22.9253 111.051L36.4306 111.793L36.0112 102.033L34.7021 99.8823L23.5933 102.985Z" fill="#A0616A"/>
<path d="M29.3172 80.0663C32.5407 80.0663 35.1539 77.4531 35.1539 74.2296C35.1539 71.006 32.5407 68.3928 29.3172 68.3928C26.0937 68.3928 23.4805 71.006 23.4805 74.2296C23.4805 77.4531 26.0937 80.0663 29.3172 80.0663Z" fill="#A0616A"/>
<path d="M18.9548 95.7581L18.9189 90.9064C18.9181 89.1607 19.5089 87.4662 20.5949 86.0994C21.6808 84.7326 23.1979 83.7741 24.8986 83.3803L24.9207 83.3752L26.0748 81.8201L30.7639 82.2891L31.6233 84.0456L35.0211 86.0688L36.3293 90.2742C36.8967 90.6524 37.3803 91.1432 37.75 91.7162C38.1197 92.2892 38.3676 92.9321 38.4783 93.605C38.9225 96.4419 36.9361 99.2805 36.6999 99.606L36.0911 103.035L22.8476 105.371L22.74 105.385L18.9548 95.7581Z" fill="#007E24"/>
<path d="M36.4597 73.189C35.7789 73.6202 35.0725 74.0097 34.3445 74.3552C33.6055 74.7102 32.8326 74.9896 32.0376 75.1892C31.8101 74.69 31.5317 74.2157 31.2068 73.7737C31.2904 74.2974 31.2926 74.8309 31.2132 75.3553C29.8953 75.5679 28.5455 75.4572 27.2799 75.0326L26.1808 73.189L26.0977 75.2467C25.1871 75.4128 24.2796 75.5694 23.369 75.7324C23.3147 75.7387 23.2604 75.7515 23.2093 75.7611C22.6437 73.2114 23.4457 70.4028 25.2286 68.703C26.1138 67.8678 27.2181 67.3013 28.4128 67.0694C29.6075 66.8375 30.8435 66.9497 31.9769 67.3929C32.1206 67.4505 32.2676 67.5144 32.4082 67.5815L32.4084 67.5827L32.4091 67.5837L32.4102 67.5844L32.4114 67.5847C32.4945 67.6262 32.5648 67.7252 32.6574 67.7157C36.645 67.2715 36.7728 70.3644 36.4597 73.189Z" fill="#2F2E41"/>
<path d="M26.7495 165.677L29.6702 167.924L39.7282 157.728L35.4175 154.411L26.7495 165.677Z" fill="#A0616A"/>
<path d="M27.1342 163.679L31.9631 166.956L30.441 168.934L32.4978 175.343C32.5994 175.659 32.5972 176 32.4915 176.315C32.3857 176.63 32.182 176.904 31.91 177.095C31.6381 177.286 31.3121 177.385 30.9798 177.378C30.6474 177.371 30.326 177.258 30.0626 177.055L24.566 172.825L25.1242 170.14L23.2487 171.812L21.1763 170.217L27.1342 163.679Z" fill="#2F2E41"/>
<path d="M17.2721 153.233L17.272 153.195L18.6562 150.809L17.2428 147.704L17.2003 139.727L17.4295 138.529C17.7376 136.919 17.648 135.257 17.1683 133.689L17.1424 128.833C17.0928 127.617 18.9772 126.547 18.5378 125.533C14.384 115.947 22.7794 108.635 22.8361 108.576L23.0077 108.397L23.9385 109.102L24.8245 109.104L36.7804 111.282L36.8667 111.443C37.337 112.325 38.2445 115.365 38.2983 116.741C38.8942 117.431 45.6815 125.285 46.2849 125.831C50.3621 129.52 52.6965 135.626 53.7251 138.937C53.9805 139.756 54.032 140.624 53.8751 141.467C53.7181 142.31 53.3575 143.101 52.8246 143.773L37.3893 160.68L33.2356 156.845L41.5875 141.626L40.9852 140.082C39.9046 139.883 38.9267 139.315 38.2182 138.475L36.527 136.467C36.0588 135.913 35.7613 135.235 35.6704 134.515L34.6448 134.392L30.9711 130.534L28.4223 153.616L27.7294 155.439L15.6621 169.626L10.5498 166.431L17.2721 153.233Z" fill="#2F2E41"/>
<path d="M15.4292 54.1232C15.1974 54.415 15.0324 54.7542 14.9458 55.1167C14.8592 55.4793 14.8531 55.8564 14.9281 56.2215C15.003 56.5866 15.157 56.9309 15.3794 57.2301C15.6018 57.5292 15.887 57.776 16.2151 57.9529L12.3779 69.3128L15.5112 81.3512L20.5636 79.0671L17.4458 69.9868L19.7784 56.7698C20.0392 56.199 20.0815 55.5524 19.8974 54.9525C19.7133 54.3525 19.3155 53.841 18.7794 53.5147C18.2433 53.1885 17.6061 53.0702 16.9887 53.1824C16.3712 53.2945 15.8164 53.6293 15.4292 54.1232Z" fill="#A0616A"/>
<path d="M20.054 91.2701C20.054 91.2701 18.8673 91.9073 18.042 89.1755C17.3813 86.9885 12.885 75.1142 12.804 71.9433C12.3686 71.853 11.9757 71.6204 11.6871 71.2822C11.3986 70.944 11.2307 70.5195 11.21 70.0754L17.7404 69.1716C18.8863 70.1298 18.312 70.9451 17.8719 71.3331L20.0961 75.1006L24.745 85.2716L20.9199 90.8247L20.054 91.2701Z" fill="#007E24"/>
<path d="M23.3677 75.732C24.0383 73.7096 25.2408 71.9049 26.8491 70.5073C28.4574 69.1097 30.4121 68.1706 32.5083 67.7886C32.5166 67.7859 32.5445 67.7747 32.5807 67.758C32.6029 67.7441 32.6308 67.7302 32.6586 67.7163C32.5751 67.6689 32.4944 67.6272 32.4108 67.5854L32.4098 67.5852L32.4089 67.5846L32.4083 67.5837L32.4081 67.5826C32.3357 67.5158 32.2633 67.449 32.1881 67.3849L31.9765 67.3933C31.9765 67.3933 24.5398 66.2156 23.3677 75.732Z" fill="#FD6584"/>
<path d="M119.327 140.773C120.139 139.553 119.658 137.807 118.254 136.873C116.85 135.939 115.054 136.17 114.242 137.39C113.43 138.61 113.911 140.356 115.315 141.291C116.719 142.225 118.516 141.993 119.327 140.773Z" fill="#F2F2F2"/>
<path d="M102.852 95.2404C103.663 94.0205 103.183 92.2742 101.779 91.34C100.374 90.4057 98.5781 90.6373 97.7665 91.8573C96.9548 93.0772 97.4352 94.8235 98.8395 95.7578C100.244 96.692 102.04 96.4604 102.852 95.2404Z" fill="#F2F2F2"/>
<path d="M171.75 165.337C172.562 164.117 172.081 162.371 170.677 161.437C169.273 160.502 167.477 160.734 166.665 161.954C165.853 163.174 166.334 164.92 167.738 165.854C169.142 166.789 170.938 166.557 171.75 165.337Z" fill="#F2F2F2"/>
<path d="M32.4556 18.8533C33.2673 17.6333 32.7869 15.887 31.3827 14.9528C29.9784 14.0185 28.1821 14.2501 27.3705 15.4701C26.5588 16.69 27.0392 18.4363 28.4435 19.3706C29.8477 20.3048 31.644 20.0732 32.4556 18.8533Z" fill="#F2F2F2"/>
<path d="M97.4596 4.47434C98.2712 3.2544 97.7908 1.50809 96.3866 0.573845C94.9823 -0.360398 93.186 -0.1288 92.3744 1.09114C91.5628 2.31108 92.0431 4.0574 93.4474 4.99165C94.8516 5.92589 96.6479 5.69427 97.4596 4.47434Z" fill="#F2F2F2"/>
<path d="M66.6949 125.111C67.5065 123.891 67.0261 122.145 65.6219 121.21C64.2177 120.276 62.4214 120.508 61.6097 121.728C60.7981 122.948 61.2785 124.694 62.6827 125.628C64.087 126.562 65.8833 126.331 66.6949 125.111Z" fill="#E6E6E6"/>
<path d="M200.784 188.606H5.98308C5.88867 188.606 5.79821 188.568 5.73154 188.501C5.66488 188.434 5.62744 188.344 5.62744 188.249C5.62744 188.155 5.66488 188.064 5.73154 187.997C5.79821 187.931 5.88867 187.893 5.98308 187.893H200.784C200.878 187.893 200.969 187.93 201.036 187.997C201.103 188.064 201.141 188.155 201.141 188.249C201.141 188.344 201.103 188.435 201.036 188.501C200.969 188.568 200.878 188.606 200.784 188.606Z" fill="#CCCCCC"/>
<path d="M42.2401 70.145C40.6015 70.1403 39.0221 69.5318 37.8038 68.4359C36.5856 67.34 35.8139 65.8336 35.6364 64.2046L31.8334 28.8847C31.6465 27.1311 32.163 25.3749 33.2693 24.0015C34.3757 22.6282 35.9817 21.7497 37.7349 21.559L150.655 9.40057C152.408 9.21364 154.164 9.72999 155.538 10.8363C156.911 11.9427 157.79 13.5487 157.981 15.3019L161.784 50.6217C161.97 52.3754 161.454 54.1316 160.348 55.505C159.241 56.8785 157.635 57.7569 155.882 57.9477L42.9622 70.1061C42.7224 70.132 42.4814 70.145 42.2401 70.145Z" fill="#E6E6E6"/>
<path d="M149.411 11.0403C149.199 11.0404 148.987 11.0518 148.776 11.0745L39.9273 22.7946C39.1662 22.8765 38.4287 23.1076 37.7569 23.4746C37.0851 23.8415 36.4921 24.3372 36.0119 24.9334C35.5317 25.5295 35.1736 26.2144 34.958 26.9489C34.7425 27.6834 34.6737 28.4532 34.7557 29.2143L36.6785 47.0724C36.9893 49.9594 37.8657 52.7569 39.2577 55.3051C40.6497 57.8534 42.5299 60.1026 44.7911 61.9242C47.0523 63.7458 49.6502 65.1042 52.4364 65.9218C55.2225 66.7394 58.1425 67.0002 61.0295 66.6893L137.568 58.4481C140.446 58.1383 143.235 57.2645 145.776 55.8767C148.316 54.489 150.559 52.6145 152.375 50.3601C154.191 48.1058 155.545 45.5159 156.36 42.7382C157.175 39.9605 157.435 37.0494 157.125 34.1712L155.195 16.2461C155.041 14.8183 154.366 13.4976 153.299 12.5369C152.231 11.5763 150.847 11.0433 149.411 11.0403Z" fill="white"/>
<path d="M126.489 29.6254L65.6524 36.1759C65.4784 36.1949 65.3024 36.1794 65.1345 36.1303C64.9665 36.0812 64.8099 35.9995 64.6736 35.8898C64.5372 35.7801 64.4239 35.6446 64.3399 35.4911C64.256 35.3375 64.2031 35.169 64.1844 34.995C64.1657 34.821 64.1814 34.645 64.2307 34.4771C64.2801 34.3093 64.362 34.1528 64.4719 34.0166C64.5817 33.8804 64.7174 33.7672 64.871 33.6834C65.0247 33.5997 65.1933 33.5471 65.3673 33.5286L126.204 26.9781C126.378 26.9591 126.554 26.9746 126.722 27.0237C126.89 27.0728 127.047 27.1545 127.183 27.2642C127.319 27.3739 127.433 27.5094 127.517 27.6629C127.601 27.8165 127.653 27.985 127.672 28.159C127.691 28.333 127.675 28.509 127.626 28.6768C127.576 28.8447 127.494 29.0012 127.385 29.1374C127.275 29.2736 127.139 29.3868 126.985 29.4706C126.832 29.5543 126.663 29.6069 126.489 29.6254Z" fill="#007E24"/>
<path d="M127.364 37.7502L66.5271 44.3007C66.176 44.3385 65.8243 44.2353 65.5494 44.0138C65.2744 43.7923 65.0987 43.4707 65.0609 43.1196C65.0231 42.7685 65.1263 42.4168 65.3478 42.1419C65.5693 41.8669 65.891 41.6912 66.242 41.6534L127.079 35.1029C127.43 35.0651 127.782 35.1683 128.057 35.3898C128.332 35.6113 128.507 35.933 128.545 36.284C128.583 36.6351 128.48 36.9868 128.258 37.2617C128.037 37.5367 127.715 37.7124 127.364 37.7502Z" fill="#007E24"/>
<path d="M74.4917 51.662L67.4021 52.4254C67.051 52.4632 66.6993 52.36 66.4244 52.1385C66.1494 51.917 65.9737 51.5953 65.9359 51.2442C65.8981 50.8932 66.0013 50.5415 66.2228 50.2665C66.4443 49.9916 66.766 49.8158 67.117 49.778L74.2067 49.0147C74.3806 48.9957 74.5566 49.0112 74.7246 49.0603C74.8925 49.1094 75.0491 49.1912 75.1855 49.3008C75.3218 49.4105 75.4352 49.546 75.5191 49.6995C75.6031 49.8531 75.6559 50.0217 75.6746 50.1956C75.6934 50.3696 75.6776 50.5456 75.6283 50.7135C75.579 50.8813 75.497 51.0379 75.3872 51.1741C75.2773 51.3102 75.1417 51.4234 74.988 51.5072C74.8344 51.5909 74.6657 51.6435 74.4917 51.662Z" fill="#007E24"/>
<path d="M39.8467 30.3752C41.1702 30.3752 42.2431 29.3023 42.2431 27.9787C42.2431 26.6552 41.1702 25.5823 39.8467 25.5823C38.5231 25.5823 37.4502 26.6552 37.4502 27.9787C37.4502 29.3023 38.5231 30.3752 39.8467 30.3752Z" fill="#3F3D56"/>
<path d="M147.088 18.3928C148.412 18.3928 149.485 17.3198 149.485 15.9963C149.485 14.6728 148.412 13.5999 147.088 13.5999C145.765 13.5999 144.692 14.6728 144.692 15.9963C144.692 17.3198 145.765 18.3928 147.088 18.3928Z" fill="#3F3D56"/>
<path d="M114.689 67.5912C114.469 67.3978 114.295 67.1578 114.179 66.8886C114.063 66.6194 114.008 66.3277 114.019 66.0348C114.14 62.554 113.567 59.084 112.333 55.8269C112.228 55.5531 112.186 55.2594 112.209 54.9672C112.232 54.675 112.32 54.3917 112.467 54.1377C112.607 53.8937 112.799 53.6833 113.029 53.5213C113.259 53.3593 113.522 53.2497 113.799 53.2002C116.585 51.5193 119.44 51.0474 122.288 51.7979C122.747 51.7303 123.216 51.8286 123.609 52.0751C124.002 52.3217 124.295 52.7004 124.434 53.1432C125.587 56.8865 126.228 60.7685 126.341 64.6837C126.351 65.1534 126.192 65.6112 125.893 65.9731C125.593 66.3349 125.173 66.5764 124.709 66.6534L116.282 68.0457C115.999 68.093 115.71 68.0767 115.434 67.9981C115.159 67.9195 114.904 67.7805 114.689 67.5912Z" fill="#007E24"/>
<path d="M115.438 57.4495L122.531 56.2776C122.589 56.2681 122.645 56.2472 122.695 56.2161C122.745 56.1849 122.789 56.1442 122.824 56.0962C122.858 56.0482 122.883 55.9939 122.896 55.9363C122.91 55.8788 122.912 55.8192 122.902 55.7609C122.892 55.7026 122.871 55.6467 122.84 55.5966C122.809 55.5464 122.768 55.5029 122.72 55.4685C122.672 55.4342 122.617 55.4096 122.56 55.3963C122.502 55.383 122.443 55.3812 122.384 55.3909L115.291 56.5628C115.174 56.5825 115.069 56.6479 115 56.7447C114.931 56.8415 114.903 56.9618 114.922 57.0792C114.941 57.1966 115.007 57.3015 115.103 57.3709C115.2 57.4404 115.32 57.4686 115.438 57.4495Z" fill="white"/>
<path d="M116.024 60.9962L123.117 59.8243C123.234 59.8049 123.339 59.7396 123.409 59.6427C123.478 59.5458 123.506 59.4253 123.487 59.3077C123.467 59.1902 123.402 59.0851 123.305 59.0157C123.208 58.9463 123.088 58.9182 122.97 58.9377L115.877 60.1095C115.819 60.119 115.763 60.1399 115.713 60.1711C115.662 60.2022 115.619 60.2429 115.584 60.2909C115.55 60.3389 115.525 60.3932 115.512 60.4508C115.498 60.5083 115.496 60.568 115.506 60.6263C115.516 60.6846 115.537 60.7404 115.568 60.7906C115.599 60.8407 115.64 60.8842 115.688 60.9186C115.736 60.953 115.791 60.9775 115.848 60.9908C115.906 61.0041 115.965 61.0059 116.024 60.9962Z" fill="white"/>
<path d="M116.609 64.5428L123.703 63.3709C123.82 63.3515 123.925 63.2862 123.995 63.1893C124.064 63.0924 124.092 62.9719 124.073 62.8544C124.053 62.7368 123.988 62.6317 123.891 62.5623C123.794 62.4929 123.674 62.4649 123.556 62.4843L116.463 63.6562C116.405 63.6658 116.349 63.6868 116.299 63.7179C116.249 63.7491 116.205 63.7898 116.171 63.8378C116.137 63.8858 116.112 63.94 116.099 63.9975C116.085 64.055 116.083 64.1145 116.093 64.1727C116.103 64.2309 116.124 64.2867 116.155 64.3368C116.186 64.3869 116.227 64.4304 116.275 64.4648C116.323 64.4991 116.377 64.5237 116.434 64.5371C116.492 64.5505 116.551 64.5524 116.609 64.5428Z" fill="white"/>
</g>
<defs>
<clipPath id="clip0_17_808">
<rect width="219" height="188.606" fill="white"/>
</clipPath>
</defs>
</svg>
