<svg width="138" height="180" viewBox="0 0 138 180" fill="none" xmlns="http://www.w3.org/2000/svg">
<path d="M47.4692 162.094V95.3724C47.4692 92.8186 49.456 90.7383 51.9057 90.7383H52.195C54.6447 90.7383 56.6314 92.8016 56.6314 95.3724V162.094H47.4692Z" fill="#300032"/>
<path d="M0 59.7706C0 92.7847 23.3008 119.541 52.0603 119.541C80.8005 119.541 104.121 92.7678 104.121 59.7706C104.121 26.7564 80.8198 8.00868e-06 52.0603 8.00868e-06C23.3008 -0.016905 0 26.7564 0 59.7706Z" fill="#92E3A9"/>
<path d="M100.263 179.836V106.332C100.263 104.201 101.922 102.459 103.967 102.459H104.198C106.243 102.459 107.921 104.184 107.921 106.332V179.836H100.263Z" fill="#300032"/>
<path d="M70.9443 102.459C70.9443 123.482 85.7967 140.53 104.102 140.53C122.407 140.53 137.259 123.482 137.259 102.459C137.259 81.436 122.407 64.3877 104.102 64.3877C85.7967 64.3877 70.9443 81.436 70.9443 102.459Z" fill="#76B586"/>
</svg>
